<svg width="1152" height="700" viewBox="0 0 1152 700" fill="none" xmlns="http://www.w3.org/2000/svg">
<g clip-path="url(#clip0)">
<path d="M1245.89 63.3002V0H586.051C690.845 1.46327 923.71 18.3833 949.341 76.7844C956.976 94.1879 957.43 107.322 952.505 117.448C919.511 185.287 793.93 188.849 672.384 248.655C483.583 341.555 539.275 454.357 381.077 511.982C233.53 565.728 120.219 464.973 4.34763 542.156C2.87463 543.13 1.42758 544.139 0 545.148V700.812H1245.89V403.48C1227.1 377.988 1215.99 358.109 1217.49 330.54C1224.78 196.627 1109.96 211.181 1104.58 137.434C1100.37 79.8796 1185.58 61.4444 1245.89 63.3002Z" fill="#EBEFF2"/>
<path d="M1245.89 33.5611V0H489.313C589.309 1.46327 945.292 -7.46235 968.367 93.7823C970.012 101.001 969.603 108.707 966.709 118.116C936.464 216.781 790.513 207.119 637.791 320.232C512.469 413.054 519.899 492.21 401.994 527.556C326.329 550.238 253.071 544.103 253.071 544.103C168.312 537.004 111.312 502.865 40.1053 530.476C25.8163 536.044 12.33 543.485 0 552.604L0 700.812H1245.89V431.486C1231.61 421.477 1213.44 405.452 1203.2 381.553C1188.85 348.086 1204.57 333.045 1200.07 301.739C1189.16 225.817 1082.09 212.872 1078.25 136.269C1077.26 116.565 1083.59 102.384 1085.54 98.3084C1117.15 32.2601 1237.86 33.3957 1245.89 33.5611Z" fill="#F4F7FA"/>
<path d="M817.345 561.231C693.107 563.778 503.239 576.597 503.044 594.432C502.875 609.895 645.28 630.358 777.506 627.633C826.443 626.624 877.268 621.056 978.925 609.924C1098.49 596.829 1158.27 590.285 1158.21 583.365C1158.09 570.611 985.608 557.779 817.345 561.231Z" fill="#EBEFF2"/>
<path d="M632.159 590.373C729.079 580.27 784.125 574.53 784.884 579.666C785.621 584.653 735.321 600.106 681.592 601.8C646.477 602.9 608.526 598.156 608.549 594.792C608.562 592.913 620.521 591.586 632.159 590.373Z" fill="#D8DEE8"/>
<path d="M944.984 577.093C942.732 577.203 894.451 579.614 894.448 582.995C894.448 585.746 926.399 591.372 959.74 590.373C973.185 589.97 988.457 588.442 1010.28 592.586C1019.55 594.347 1019.56 595.145 1026.14 596.275C1054.92 601.209 1086.18 591.323 1085.91 585.947C1085.46 577.33 1003.72 574.244 944.984 577.093Z" fill="#D8DEE8"/>
<path opacity="0.5" d="M582.103 314.921L507.057 314.422L468.279 382.608L507.057 449.802L582.103 447.381L618.425 380.687L582.103 314.921Z" fill="url(#paint0_linear)"/>
<path style="mix-blend-mode:multiply" opacity="0.47" d="M700.832 388.338L630.984 389.418L594.935 455.956L630.984 519.977L700.832 516.181L734.676 451.077L700.832 388.338Z" fill="url(#paint1_linear)"/>
<path style="mix-blend-mode:multiply" opacity="0.47" d="M700.832 242.906L630.984 240.895L594.935 305.836L630.984 371.453L700.832 370.746L734.676 307.144L700.832 242.906Z" fill="url(#paint2_linear)"/>
<path style="mix-blend-mode:multiply" opacity="0.15" d="M901.326 321.919L848.457 321.576L821.261 376.187L848.457 430.107L901.326 428.427L927.029 374.847L901.326 321.919Z" fill="url(#paint3_linear)"/>
<path style="mix-blend-mode:multiply" opacity="0.47" d="M901.326 443.374L848.457 445.337L821.261 501.136L848.457 553.869L901.326 549.881L927.029 495.179L901.326 443.374Z" fill="url(#paint4_linear)"/>
<path opacity="0.5" d="M985.621 266.179L935.935 264.819L910.397 317.202L935.935 370.006L985.621 369.461L1009.8 318.016L985.621 266.179Z" fill="url(#paint5_linear)"/>
<path opacity="0.5" d="M1018.42 318.088L994.404 369.364L1101.25 368.196L1123.41 318.947L1018.42 318.088Z" fill="url(#paint6_linear)"/>
<path opacity="0.5" d="M935.832 494.686L910.294 549.207L1090.03 535.648L1112.38 484.745L935.832 494.686Z" fill="url(#paint7_linear)"/>
<path opacity="0.5" d="M985.621 381.42L935.935 382.186L910.397 435.659L935.935 487.37L985.621 484.706L1009.8 432.229L985.621 381.42Z" fill="url(#paint8_linear)"/>
<path style="mix-blend-mode:multiply" opacity="0.15" d="M1064.96 211.256L1018.18 208.959L994.151 259.258L1018.18 310.995L1064.96 311.505L1087.74 262.062L1064.96 211.256Z" fill="url(#paint9_linear)"/>
<path style="mix-blend-mode:multiply" opacity="0.15" d="M1150.53 216.454L1075.11 211.639L1097.75 262.286L1075.11 311.576L1150.53 310.324L1170.51 263.986L1150.53 216.454Z" fill="url(#paint10_linear)"/>
<path style="mix-blend-mode:multiply" opacity="0.15" d="M1174.07 378.393L994.151 381.151L1018.18 431.801L994.151 484.109L1174.07 474.466L1195 425.708L1174.07 378.393Z" fill="url(#paint11_linear)"/>
<path style="mix-blend-mode:multiply" opacity="0.47" d="M865.007 285.756C866.886 286.71 869.248 285.834 870.279 283.81C871.311 281.785 870.626 279.352 868.748 278.398C868.651 278.349 868.553 278.307 868.453 278.268C868.797 277.157 869.061 276.023 869.241 274.874C869.348 274.874 869.455 274.874 869.566 274.874C871.71 274.683 873.41 272.713 873.365 270.475C873.319 268.236 871.548 266.581 869.403 266.766C869.293 266.766 869.183 266.795 869.079 266.815C868.856 265.712 868.549 264.627 868.161 263.57C868.261 263.515 868.358 263.454 868.453 263.389C870.289 262.091 870.873 259.567 869.75 257.724C868.628 255.881 866.253 255.427 864.42 256.712C864.326 256.78 864.238 256.848 864.15 256.922C863.42 256.118 862.625 255.374 861.772 254.7C861.831 254.603 861.889 254.502 861.944 254.395C862.976 252.361 862.291 249.94 860.413 248.986C858.534 248.032 856.172 248.909 855.14 250.933C855.087 251.038 855.039 251.147 854.998 251.258C853.951 250.967 852.882 250.763 851.802 250.648C851.802 250.533 851.802 250.419 851.802 250.307C851.756 248.068 849.982 246.413 847.837 246.598C845.692 246.783 843.992 248.759 844.038 250.998C844.038 251.115 844.038 251.232 844.06 251.345C842.979 251.653 841.924 252.045 840.904 252.516C840.855 252.416 840.803 252.318 840.745 252.221C839.635 250.378 837.247 249.924 835.414 251.209C833.581 252.494 832.993 255.031 834.116 256.874C834.174 256.968 834.236 257.055 834.301 257.143C833.48 257.967 832.721 258.85 832.03 259.784C831.94 259.725 831.847 259.671 831.751 259.622C829.872 258.668 827.51 259.544 826.479 261.569C825.447 263.593 826.131 266.027 828.01 266.98C828.107 267.029 828.208 267.071 828.305 267.11C827.962 268.221 827.698 269.355 827.517 270.504C827.41 270.504 827.303 270.504 827.192 270.504C825.048 270.695 823.348 272.665 823.393 274.903C823.438 277.142 825.21 278.797 827.355 278.612C827.468 278.612 827.575 278.583 827.679 278.563C827.901 279.667 828.208 280.751 828.597 281.808C828.5 281.866 828.399 281.928 828.305 281.993C826.472 283.291 825.885 285.815 827.007 287.658C828.13 289.5 830.505 289.955 832.338 288.67C832.432 288.602 832.523 288.53 832.611 288.459C833.339 289.265 834.134 290.008 834.989 290.678C834.927 290.779 834.869 290.879 834.814 290.983C833.782 293.018 834.466 295.441 836.345 296.395C838.224 297.349 840.586 296.473 841.617 294.448C841.672 294.345 841.718 294.237 841.763 294.124C842.81 294.415 843.879 294.619 844.959 294.734C844.953 294.847 844.953 294.961 844.959 295.075C845.001 297.313 846.776 298.968 848.921 298.78C851.065 298.592 852.765 296.619 852.72 294.38C852.72 294.263 852.72 294.15 852.697 294.036C853.778 293.729 854.834 293.337 855.854 292.865C855.903 292.966 855.955 293.063 856.013 293.16C857.123 295.003 859.511 295.457 861.344 294.173C863.177 292.888 863.764 290.351 862.642 288.508C862.583 288.414 862.522 288.326 862.46 288.238C863.279 287.413 864.038 286.531 864.731 285.597C864.819 285.649 864.91 285.708 865.007 285.756ZM841.588 286.052C834.775 282.59 832.276 273.794 836.027 266.409C839.778 259.025 848.356 255.842 855.17 259.304C861.983 262.766 864.481 271.565 860.731 278.949C856.98 286.334 848.408 289.517 841.588 286.052Z" fill="url(#paint12_linear)"/>
<path style="mix-blend-mode:multiply" opacity="0.47" d="M820.129 257.659C823.205 259.22 827.072 257.785 828.766 254.453C830.46 251.121 829.334 247.153 826.255 245.589C826.096 245.508 825.93 245.44 825.771 245.375C826.339 243.556 826.773 241.697 827.069 239.814C827.244 239.814 827.423 239.814 827.601 239.795C831.112 239.47 833.899 236.255 833.827 232.589C833.756 228.922 830.846 226.2 827.338 226.515C827.157 226.531 826.975 226.56 826.796 226.59C826.433 224.783 825.929 223.007 825.291 221.278C825.453 221.184 825.615 221.087 825.771 220.977C828.776 218.874 829.736 214.718 827.916 211.701C826.096 208.683 822.186 207.937 819.182 210.043C819.029 210.15 818.883 210.266 818.74 210.387C817.547 209.067 816.245 207.85 814.847 206.749C814.948 206.587 815.045 206.425 815.133 206.25C816.823 202.918 815.7 198.95 812.621 197.386C809.542 195.822 805.678 197.259 803.988 200.591C803.9 200.763 803.822 200.939 803.751 201.114C802.036 200.635 800.284 200.301 798.514 200.114C798.514 199.93 798.534 199.745 798.514 199.556C798.443 195.89 795.536 193.168 792.025 193.483C788.515 193.797 785.724 197.022 785.799 200.689C785.799 200.88 785.818 201.068 785.838 201.253C784.061 201.759 782.325 202.401 780.647 203.174C780.566 203.012 780.484 202.85 780.387 202.691C778.57 199.67 774.657 198.93 771.656 201.036C768.655 203.142 767.691 207.295 769.508 210.312C769.602 210.468 769.706 210.614 769.807 210.756C768.46 212.104 767.215 213.55 766.082 215.081C765.933 214.987 765.78 214.896 765.621 214.815C762.542 213.251 758.678 214.685 756.984 218.021C755.291 221.356 756.417 225.321 759.493 226.882C759.655 226.963 759.817 227.031 759.979 227.096C759.412 228.916 758.978 230.776 758.681 232.66C758.506 232.66 758.328 232.66 758.149 232.68C754.635 233.004 751.848 236.219 751.923 239.886C751.998 243.552 754.902 246.271 758.412 245.959C758.594 245.943 758.775 245.914 758.954 245.881C759.318 247.688 759.82 249.463 760.456 251.193C760.297 251.287 760.132 251.384 759.979 251.494C756.975 253.6 756.014 257.753 757.831 260.774C759.648 263.794 763.561 264.534 766.565 262.428C766.721 262.321 766.864 262.204 767.007 262.088C768.201 263.407 769.503 264.623 770.9 265.725C770.803 265.887 770.705 266.049 770.618 266.224C768.924 269.556 770.05 273.525 773.126 275.088C776.202 276.652 780.072 275.215 781.763 271.883C781.85 271.711 781.925 271.536 782 271.357C783.713 271.838 785.463 272.173 787.233 272.357C787.233 272.545 787.214 272.73 787.217 272.918C787.291 276.584 790.198 279.303 793.706 278.992C797.213 278.68 800.003 275.452 799.932 271.782C799.932 271.591 799.912 271.406 799.893 271.218C801.671 270.713 803.406 270.071 805.084 269.297C805.161 269.462 805.247 269.624 805.341 269.78C807.161 272.801 811.07 273.544 814.075 271.438C817.079 269.333 818.04 265.18 816.219 262.159C816.129 262.007 816.025 261.861 815.921 261.718C817.268 260.369 818.514 258.924 819.649 257.393C819.818 257.487 819.97 257.578 820.129 257.659ZM781.76 258.146C770.585 252.471 766.51 238.062 772.652 225.963C778.794 213.865 792.833 208.654 804.007 214.329C815.181 220.003 819.256 234.409 813.118 246.511C806.979 258.613 792.937 263.817 781.76 258.146Z" fill="url(#paint13_linear)"/>
<path d="M792.902 518.835C784.534 519.286 777.698 512.281 777.698 503.219V330.612C777.698 321.553 784.534 314.181 792.902 314.181H1070.24C1077.4 314.181 1083.21 320.962 1083.21 329.298V488.103C1083.21 496.438 1077.41 503.534 1070.24 503.917L792.902 518.835Z" fill="#97A6B7"/>
<path d="M1070.23 319.084L792.901 319.47C787.415 319.47 782.957 324.45 782.957 330.576V502.959C782.957 509.085 787.415 513.816 792.901 513.53L1070.23 499.004C1074.94 498.758 1078.74 493.979 1078.74 488.33V329.317C1078.74 323.652 1074.94 319.077 1070.23 319.084Z" fill="url(#paint14_linear)"/>
<path d="M965.136 479.077L945.743 479.956V444.503L965.136 443.812V479.077Z" fill="#D8DEE8"/>
<path d="M997.007 477.63L977.952 478.493V431.785L997.007 431.165V477.63Z" fill="#D8DEE8"/>
<path d="M1028.32 476.205L1009.6 477.055V415.51L1028.32 414.982V476.205Z" fill="#D8DEE8"/>
<path d="M1059.1 474.81L1040.7 475.644V394.544L1059.1 394.129V474.81Z" fill="#D8DEE8"/>
<path d="M945.74 414.29C945.295 414.299 944.853 414.215 944.442 414.044C942.726 413.327 941.921 411.254 942.645 409.42C943.472 407.321 945.477 407.003 946.538 406.825C947.352 406.698 948.456 406.569 949.854 406.406C995.601 401.095 1028.11 380.908 1047.19 346.578C1048.1 344.936 1050.06 344.401 1051.56 345.377C1053.06 346.354 1053.54 348.482 1052.62 350.124C1039.73 373.371 1020.87 390.68 996.387 401.582C976.569 410.4 958.283 412.558 950.418 413.489C949.121 413.642 947.771 413.814 947.148 413.911C946.714 414.143 946.232 414.272 945.74 414.29Z" fill="#D8DEE8"/>
<path d="M1052.98 366.583C1051.32 366.609 1049.92 365.224 1049.81 363.391L1048.91 348.245L1035.61 358.057C1035.26 358.313 1034.87 358.494 1034.45 358.588C1034.03 358.682 1033.6 358.687 1033.18 358.601C1032.76 358.516 1032.36 358.344 1032.01 358.094C1031.66 357.845 1031.37 357.525 1031.15 357.155C1030.68 356.381 1030.5 355.459 1030.67 354.565C1030.83 353.672 1031.32 352.87 1032.03 352.314L1054.52 335.767L1056.14 362.855C1056.26 364.76 1054.93 366.424 1053.18 366.574C1053.12 366.58 1053.05 366.583 1052.98 366.583Z" fill="#D8DEE8"/>
<path opacity="0.68" d="M816.268 356.201C816.279 357.666 815.714 359.076 814.695 360.128C813.676 361.18 812.285 361.79 810.821 361.827C810.098 361.83 809.382 361.689 808.715 361.412C808.047 361.135 807.441 360.728 806.933 360.215C806.425 359.701 806.024 359.092 805.754 358.421C805.484 357.751 805.35 357.034 805.36 356.311C805.349 354.844 805.915 353.431 806.937 352.379C807.959 351.326 809.354 350.718 810.821 350.685C811.542 350.684 812.256 350.827 812.922 351.105C813.588 351.382 814.192 351.79 814.699 352.303C815.206 352.816 815.606 353.425 815.875 354.094C816.144 354.763 816.278 355.48 816.268 356.201Z" fill="#D8DEE8"/>
<path opacity="0.68" d="M917.218 367.132L824.474 368.468V343.752L917.218 343.025V367.132Z" fill="#D8DEE8"/>
<path opacity="0.68" d="M816.268 389.95C816.276 391.419 815.711 392.832 814.695 393.892C813.678 394.951 812.288 395.573 810.821 395.625C810.101 395.636 809.387 395.502 808.72 395.232C808.053 394.962 807.447 394.561 806.937 394.052C806.428 393.544 806.026 392.938 805.755 392.271C805.484 391.605 805.35 390.89 805.36 390.171C805.351 388.7 805.917 387.283 806.937 386.223C807.957 385.163 809.35 384.543 810.821 384.496C811.539 384.487 812.252 384.622 812.918 384.893C813.583 385.164 814.188 385.565 814.695 386.074C815.203 386.582 815.604 387.187 815.874 387.853C816.144 388.519 816.278 389.232 816.268 389.95Z" fill="#D8DEE8"/>
<path opacity="0.68" d="M917.218 399.982L824.474 402.143V377.43L917.218 375.876V399.982Z" fill="#D8DEE8"/>
<path opacity="0.68" d="M816.268 457.452C816.27 458.928 815.707 460.349 814.694 461.423C813.68 462.496 812.294 463.141 810.821 463.224C810.105 463.251 809.392 463.131 808.724 462.873C808.056 462.614 807.448 462.222 806.937 461.721C806.426 461.22 806.023 460.619 805.752 459.957C805.48 459.294 805.347 458.583 805.36 457.867C805.357 456.389 805.922 454.965 806.938 453.891C807.954 452.817 809.344 452.174 810.821 452.095C811.535 452.071 812.247 452.192 812.913 452.451C813.579 452.71 814.185 453.102 814.695 453.603C815.205 454.105 815.607 454.704 815.877 455.366C816.148 456.028 816.281 456.737 816.268 457.452Z" fill="#D8DEE8"/>
<path opacity="0.68" d="M917.218 459.655L824.474 463.321V450.963L917.218 447.602V459.655Z" fill="#D8DEE8"/>
<path opacity="0.68" d="M816.268 479.641C816.269 481.12 815.705 482.543 814.693 483.621C813.681 484.699 812.296 485.35 810.821 485.442C810.107 485.475 809.393 485.36 808.726 485.105C808.058 484.851 807.449 484.462 806.937 483.963C806.425 483.464 806.021 482.866 805.75 482.204C805.479 481.543 805.346 480.833 805.36 480.118C805.359 478.637 805.924 477.211 806.939 476.133C807.954 475.054 809.342 474.403 810.821 474.314C811.534 474.284 812.246 474.401 812.912 474.656C813.578 474.912 814.186 475.301 814.696 475.8C815.206 476.299 815.609 476.897 815.879 477.558C816.15 478.219 816.282 478.928 816.268 479.641Z" fill="#D8DEE8"/>
<path opacity="0.68" d="M917.218 481.251L824.474 485.462V473.104L917.218 469.197V481.251Z" fill="#D8DEE8"/>
<path d="M498.654 483.249C501.558 432.109 565.008 381.557 627.818 375.207C709.255 366.995 739.315 438.206 817.647 422.957C873.063 412.169 906.563 367.083 913.152 374.033C918.548 379.727 899.182 413.259 869.705 436.266C817.333 477.146 751.141 470.657 738.193 469.142C676.573 461.9 670.843 431.72 634.08 437.833C571.367 448.26 550.933 542.273 520.967 534.898C505.85 531.196 497.48 503.943 498.654 483.249Z" fill="url(#paint15_linear)"/>
<path d="M831.923 407.477L814.477 407.506C813.301 396.194 810.578 385.097 806.382 374.526L821.135 365.97C825.165 363.631 826.544 358.359 824.221 354.18L818.02 343.032C815.684 338.814 810.49 337.282 806.418 339.596L791.85 347.863C785.037 338.326 776.949 329.769 767.812 322.429L776.189 308.033C778.593 303.906 777.162 298.468 772.996 295.882L761.845 288.962C757.627 286.347 752.218 287.583 749.772 291.736L741.369 305.983C730.336 300.849 718.64 297.282 706.62 295.386V278.492C706.62 273.508 702.519 269.281 697.445 269.05L683.867 268.431C678.73 268.197 674.552 272.09 674.552 277.129V294.208C662.089 295.244 649.837 298.044 638.161 302.524L629.109 287.083C626.445 282.541 620.531 280.786 615.888 283.167L603.478 289.536C602.37 290.089 601.39 290.867 600.6 291.82C599.81 292.773 599.228 293.88 598.89 295.07C598.552 296.261 598.466 297.509 598.637 298.735C598.809 299.961 599.234 301.138 599.886 302.19L609.275 317.987C598.999 325.245 589.82 333.944 582.022 343.817L565.027 334.184C560.209 331.458 554.031 332.886 551.231 337.354L543.769 349.313C540.953 353.826 542.627 359.695 547.497 362.375L565.072 372.109C560.111 383.514 556.871 395.593 555.459 407.951L534.37 407.986C528.695 407.986 524.081 412.298 524.081 417.593V431.678C524.081 436.973 528.695 441.207 534.37 441.136L556.014 440.866C557.805 452.936 561.365 464.676 566.578 475.709L547.474 486.549C542.607 489.313 540.93 495.192 543.746 499.666L551.209 511.522C554.009 515.963 560.186 517.287 565.004 514.497L584.325 503.29C592.063 512.434 601.037 520.455 610.989 527.121L599.85 546.017C597.131 550.625 598.744 556.27 603.442 558.612L615.859 564.803C620.501 567.12 626.416 565.277 629.08 560.702L640.111 541.722C651.203 545.633 662.771 548.034 674.503 548.86V570.014C674.503 575.052 678.682 578.887 683.818 578.582L697.396 577.768C702.471 577.466 706.572 573.18 706.572 568.197V547.27C717.934 545.331 728.994 541.912 739.468 537.098L749.72 554.339C752.167 558.46 757.578 559.618 761.793 556.935L772.944 549.859C777.117 547.211 778.541 541.748 776.137 537.659L766.186 520.707C775.062 513.688 782.99 505.546 789.77 496.487L806.366 505.669C810.438 507.94 815.632 506.318 817.968 502.071L824.169 490.835C826.492 486.617 825.113 481.367 821.083 479.086L805.032 470.002C809.443 459.664 812.444 448.781 813.955 437.644L831.871 437.421C836.491 437.365 840.222 433.462 840.222 428.706V416.052C840.274 411.319 836.543 407.467 831.923 407.477ZM690.677 511.59C639.05 513.504 595.846 473.438 595.846 422.042C595.846 370.646 639.05 330.018 690.677 331.273C740.548 332.487 779.748 372.582 779.748 420.867C779.748 469.152 740.548 509.737 690.677 511.59Z" fill="url(#paint16_linear)"/>
<path d="M632.909 282.505L620.482 282.077L616.196 293.219L632.909 282.505Z" fill="url(#paint17_linear)"/>
<path d="M756.128 287.648L770.456 287.791V298.361L756.128 287.648Z" fill="url(#paint18_linear)"/>
<path d="M810.733 338.632L825.019 339.209L821.447 347.207L810.733 338.632Z" fill="url(#paint19_linear)"/>
<path d="M833.159 407.626L847.584 408.768L842.87 415.767L833.159 407.626Z" fill="url(#paint20_linear)"/>
<path d="M809.163 506.606L823.16 508.608L824.876 497.181L809.163 506.606Z" fill="url(#paint21_linear)"/>
<path d="M755.603 558.171L768.172 560.455L769.171 551.173L755.603 558.171Z" fill="url(#paint22_linear)"/>
<path d="M692.757 580.451L681.472 578.453L691.183 564.028L692.757 580.451Z" fill="url(#paint23_linear)"/>
<path d="M631.623 568.31L618.483 565.598L628.625 553.314L631.623 568.31Z" fill="url(#paint24_linear)"/>
<path d="M557.778 332.925L571.49 333.353L566.065 343.353L557.778 332.925Z" fill="url(#paint25_linear)"/>
<path d="M530.499 440.477L543.068 442.333L542.069 432.051L530.499 440.477Z" fill="url(#paint26_linear)"/>
<path d="M557.493 515.749L569.777 517.748L570.776 509.608L557.493 515.749Z" fill="url(#paint27_linear)"/>
<path d="M846.02 408.609L828.428 408.639C827.241 397.234 824.495 386.046 820.265 375.389L835.141 366.765C839.203 364.41 840.595 359.092 838.253 354.877L832 343.641C829.645 339.401 824.408 337.844 820.301 340.176L805.61 348.511C798.739 338.901 790.584 330.277 781.373 322.88L789.809 308.37C792.236 304.208 790.782 298.728 786.59 296.119L775.348 289.144C771.095 286.506 765.641 287.752 763.172 291.94L754.716 306.281C743.592 301.102 731.797 297.506 719.676 295.597V278.573C719.676 273.55 715.542 269.287 710.426 269.054L696.737 268.431C691.546 268.194 687.328 272.12 687.328 277.191V294.409C674.763 295.451 662.41 298.274 650.639 302.793L641.499 287.22C638.813 282.645 632.85 280.87 628.168 283.271L615.651 289.692C614.535 290.249 613.548 291.033 612.753 291.993C611.957 292.953 611.37 294.068 611.029 295.267C610.688 296.466 610.601 297.723 610.773 298.958C610.944 300.193 611.371 301.379 612.026 302.44L621.497 318.364C611.136 325.68 601.882 334.451 594.019 344.404L576.892 334.716C572.025 331.968 565.805 333.392 562.986 337.912L555.459 349.984C552.616 354.527 554.303 360.438 559.216 363.154L576.937 372.962C571.941 384.459 568.679 396.634 567.259 409.09L546.001 409.125C540.281 409.125 535.618 413.47 535.618 418.81V433.008C535.618 438.345 540.271 442.615 546.001 442.544L567.823 442.271C569.637 454.44 573.232 466.275 578.495 477.396L559.232 488.327C554.32 491.114 552.633 497.042 555.475 501.551L563.005 513.501C565.825 517.982 572.057 519.315 576.911 516.499L596.394 505.205C604.196 514.423 613.244 522.51 623.278 529.23L612.046 548.279C609.308 552.925 610.933 558.616 615.67 560.974L628.187 567.217C632.869 569.553 638.833 567.694 641.519 563.08L652.657 543.938C663.846 547.878 675.514 550.297 687.348 551.127V572.457C687.348 577.534 691.565 581.402 696.757 581.09L710.445 580.273C715.562 579.968 719.695 575.646 719.695 570.624V549.534C731.153 547.58 742.305 544.133 752.867 539.282L763.201 556.662C765.67 560.815 771.124 561.987 775.377 559.287L786.62 552.149C790.837 549.482 792.265 543.983 789.838 539.853L779.806 522.764C788.755 515.686 796.748 507.477 803.585 498.343L820.317 507.602C824.425 509.874 829.661 508.251 832.017 503.972L838.269 492.645C840.611 488.398 839.219 483.103 835.157 480.803L818.974 471.65C823.42 461.229 826.446 450.257 827.971 439.03L846.036 438.806C850.692 438.748 854.456 434.815 854.456 430.02V417.269C854.439 412.48 850.676 408.6 846.02 408.609ZM703.586 513.569C651.535 515.516 607.974 475.109 607.974 423.287C607.974 371.466 651.535 330.514 703.586 331.793C753.876 333.016 793.401 373.439 793.401 422.113C793.401 470.787 753.886 511.703 703.599 513.569H703.586Z" fill="url(#paint28_linear)"/>
<path d="M983.752 343.648C983.752 343.648 1006.46 369.198 987.094 410.248C986.681 411.119 986.044 411.865 985.25 412.41C984.455 412.956 983.53 413.281 982.569 413.354C981.607 413.427 980.644 413.244 979.776 412.825C978.908 412.405 978.167 411.763 977.627 410.965L962.52 388.665C961.322 386.898 960.507 384.899 960.127 382.797C959.747 380.696 959.811 378.538 960.314 376.463L965.544 354.916L983.752 343.648Z" fill="url(#paint29_linear)"/>
<path d="M932.983 303.419C932.983 303.419 902.916 287.138 867.382 315.388C866.629 315.99 866.048 316.78 865.699 317.678C865.35 318.577 865.244 319.552 865.393 320.504C865.542 321.456 865.94 322.352 866.547 323.101C867.154 323.85 867.948 324.425 868.848 324.768L894.013 334.382C896.008 335.143 898.141 335.479 900.274 335.367C902.406 335.256 904.492 334.699 906.397 333.733L926.189 323.717L932.983 303.419Z" fill="url(#paint30_linear)"/>
<path d="M986.004 340.812C986.004 340.812 1008.72 366.363 989.346 407.412C988.934 408.283 988.298 409.03 987.503 409.576C986.709 410.121 985.784 410.448 984.823 410.521C983.862 410.594 982.899 410.411 982.031 409.992C981.163 409.573 980.422 408.931 979.882 408.132L964.772 385.83C963.574 384.062 962.759 382.063 962.379 379.962C961.999 377.86 962.063 375.703 962.566 373.627L967.796 352.08L986.004 340.812Z" fill="url(#paint31_linear)"/>
<path d="M935.231 300.584C935.231 300.584 905.161 284.303 869.631 312.556C868.877 313.157 868.297 313.947 867.947 314.845C867.598 315.744 867.492 316.718 867.641 317.67C867.789 318.623 868.187 319.519 868.793 320.268C869.4 321.017 870.193 321.592 871.094 321.936L896.258 331.546C898.254 332.307 900.386 332.642 902.519 332.531C904.652 332.419 906.737 331.862 908.642 330.897L928.434 320.878L935.231 300.584Z" fill="url(#paint32_linear)"/>
<path d="M958.984 236.281C990.887 204.079 1043.72 215.717 1043.75 215.782C1043.82 215.782 1067.22 264.573 1043.17 302.991C1021.35 337.837 972.841 363.147 963.523 367.781C962.52 368.28 960.895 368.965 960.298 368.014C948.721 349.579 933.2 337.925 914.55 331.793C913.519 331.468 913.84 329.742 914.09 328.684C916.445 318.691 929.994 265.543 958.984 236.281Z" fill="url(#paint33_linear)"/>
<g style="mix-blend-mode:multiply" opacity="0.3">
<path style="mix-blend-mode:multiply" opacity="0.3" d="M979.515 284.994C997.36 267.12 1014.11 274.452 1031.35 258.879C1037.65 253.191 1044.54 243.977 1048.41 228.056C1053.75 244.996 1059.77 276.464 1043.16 303.004C1021.34 337.85 972.832 363.16 963.513 367.794C962.511 368.293 960.885 368.978 960.288 368.027C954.448 358.712 947.583 351.133 939.829 345.118C945.548 341.777 950.654 337.482 954.925 332.419C969.305 315.226 963.26 301.278 979.515 284.994Z" fill="url(#paint34_linear)"/>
</g>
<path d="M1022.7 242.364C1010.41 232.631 995.283 223.815 981.75 221.045C1007.31 210.205 1035.23 214.196 1042.14 215.467C1042.64 215.559 1043.11 215.773 1043.52 216.091C1043.92 216.409 1044.23 216.821 1044.44 217.291C1047.25 223.728 1057.52 249.992 1052.81 277.353C1047.97 266.124 1035 252.098 1022.7 242.364Z" fill="url(#paint35_linear)"/>
<path style="mix-blend-mode:multiply" opacity="0.3" d="M1048.42 228.053C1048.44 228.134 1048.47 228.212 1048.49 228.293C1048.54 228.426 1048.58 228.562 1048.62 228.698L1048.75 229.114C1048.79 229.244 1048.83 229.377 1048.87 229.51C1048.91 229.643 1048.96 229.802 1049 229.951C1049.05 230.1 1049.08 230.207 1049.12 230.334C1049.16 230.46 1049.21 230.658 1049.26 230.811L1049.36 231.184C1049.41 231.349 1049.46 231.508 1049.51 231.687C1049.55 231.865 1049.57 231.927 1049.61 232.047L1049.76 232.582L1049.85 232.933C1049.9 233.117 1049.95 233.306 1050.01 233.494C1050.03 233.607 1050.06 233.724 1050.1 233.838C1050.15 234.032 1050.2 234.227 1050.25 234.425C1050.28 234.535 1050.31 234.646 1050.33 234.749C1050.39 234.951 1050.44 235.158 1050.49 235.363C1050.52 235.47 1050.54 235.577 1050.57 235.687C1050.63 235.898 1050.68 236.112 1050.73 236.336C1050.75 236.44 1050.78 236.547 1050.8 236.66C1050.86 236.881 1050.91 237.105 1050.96 237.326C1050.99 237.429 1051.01 237.53 1051.03 237.634C1051.09 237.861 1051.14 238.091 1051.19 238.322C1051.21 238.422 1051.24 238.523 1051.26 238.62C1051.31 238.857 1051.36 239.094 1051.42 239.334C1051.44 239.431 1051.46 239.529 1051.48 239.626L1051.63 240.359L1051.69 240.645C1051.74 240.895 1051.8 241.148 1051.85 241.401C1051.86 241.495 1051.88 241.586 1051.9 241.68C1051.95 241.936 1052 242.196 1052.05 242.458L1052.1 242.728C1052.15 242.99 1052.2 243.257 1052.25 243.526C1052.25 243.613 1052.28 243.701 1052.3 243.789C1052.34 244.061 1052.39 244.334 1052.44 244.609C1052.44 244.694 1052.47 244.778 1052.48 244.859C1052.53 245.142 1052.58 245.424 1052.62 245.706L1052.66 245.949C1052.71 246.235 1052.75 246.524 1052.8 246.816C1052.8 246.894 1052.82 246.971 1052.83 247.049C1052.88 247.345 1052.92 247.637 1052.96 247.932C1052.96 248.01 1052.98 248.088 1052.99 248.165C1053.04 248.464 1053.07 248.766 1053.11 249.067L1053.14 249.288L1053.26 250.209C1053.26 250.281 1053.28 250.352 1053.29 250.424L1053.39 251.365C1053.39 251.433 1053.41 251.501 1053.42 251.569C1053.45 251.893 1053.48 252.218 1053.52 252.542L1053.54 252.737C1053.56 253.061 1053.6 253.386 1053.63 253.71C1053.63 253.772 1053.63 253.834 1053.63 253.895C1053.66 254.22 1053.68 254.544 1053.71 254.898C1053.71 254.953 1053.71 255.011 1053.71 255.07C1053.73 255.394 1053.76 255.748 1053.78 256.092V256.254C1053.8 256.598 1053.82 256.945 1053.84 257.292C1053.84 257.344 1053.84 257.396 1053.84 257.448C1053.86 257.798 1053.88 258.152 1053.9 258.502C1053.9 258.551 1053.9 258.597 1053.9 258.645C1053.9 259.002 1053.92 259.362 1053.93 259.722C1053.93 259.765 1053.93 259.807 1053.93 259.849C1053.93 260.216 1053.95 260.582 1053.96 260.949C1053.96 260.988 1053.96 261.027 1053.96 261.062C1053.96 261.435 1053.96 261.809 1053.96 262.185C1053.96 262.216 1053.96 262.248 1053.96 262.279C1053.96 262.659 1053.96 263.041 1053.96 263.424V263.502C1053.96 263.892 1053.96 264.281 1053.94 264.67V264.729C1053.94 265.124 1053.92 265.524 1053.91 265.926V265.952C1053.78 269.775 1053.39 273.585 1052.74 277.356C1049.65 270.189 1043.23 261.867 1035.79 254.255C1040.73 248.487 1045.46 240.233 1048.42 228.053Z" fill="url(#paint36_linear)"/>
<path d="M1020.8 303.507C1032.09 289.258 1028.42 267.546 1012.6 255.01C996.775 242.475 974.798 243.863 963.509 258.112C952.22 272.36 955.894 294.073 971.715 306.608C987.537 319.144 1009.51 317.755 1020.8 303.507Z" fill="url(#paint37_linear)"/>
<path style="mix-blend-mode:multiply" d="M979.515 284.994C994.086 270.394 1007.91 272.606 1021.88 265.446C1029.34 277.59 1029.4 292.725 1020.82 303.552C1009.53 317.802 987.555 319.188 971.735 306.654C970.46 305.644 969.246 304.561 968.098 303.41C970.204 297.401 973.15 291.376 979.515 284.994Z" fill="url(#paint38_linear)"/>
<path d="M1018.42 301.615C1028.76 288.555 1025.39 268.652 1010.89 257.162C996.39 245.671 976.244 246.943 965.896 260.004C955.549 273.064 958.917 292.966 973.42 304.457C987.922 315.948 1008.07 314.675 1018.42 301.615Z" fill="url(#paint39_linear)"/>
<path d="M1015.03 298.933C1024.05 287.555 1021.11 270.218 1008.48 260.208C995.846 250.199 978.296 251.308 969.282 262.685C960.267 274.063 963.201 291.401 975.834 301.41C988.467 311.42 1006.02 310.311 1015.03 298.933Z" fill="url(#paint40_linear)"/>
<path d="M961.098 368.764C964.178 364.877 956.008 353.273 942.849 342.848C929.69 332.422 916.526 327.122 913.446 331.01C910.366 334.897 918.536 346.5 931.695 356.926C944.853 367.352 958.017 372.652 961.098 368.764Z" fill="url(#paint41_linear)"/>
<path d="M935.011 342.509L945.237 350.62C947.896 352.728 949.865 355.581 950.894 358.814C951.922 362.047 951.962 365.514 951.009 368.77L949.16 375.094C949.002 375.631 948.716 376.121 948.324 376.522C947.933 376.922 947.449 377.22 946.916 377.389C946.382 377.559 945.815 377.595 945.264 377.494C944.714 377.393 944.196 377.158 943.758 376.81L909.849 349.942C909.41 349.595 909.064 349.144 908.839 348.631C908.615 348.118 908.521 347.558 908.564 347C908.607 346.441 908.787 345.902 909.088 345.43C909.388 344.957 909.8 344.566 910.287 344.29L916.02 341.046C918.972 339.372 922.356 338.617 925.739 338.877C929.122 339.138 932.35 340.403 935.011 342.509Z" fill="url(#paint42_linear)"/>
<path d="M947.513 377.539C950.419 373.87 943.972 363.921 933.113 355.317C922.253 346.713 911.094 342.712 908.187 346.381C905.281 350.049 911.728 359.998 922.587 368.602C933.447 377.206 944.606 381.207 947.513 377.539Z" fill="url(#paint43_linear)"/>
<path d="M942.793 373.799C945.002 371.011 940.102 363.45 931.85 356.912C923.597 350.373 915.116 347.332 912.907 350.12C910.698 352.908 915.598 360.469 923.851 367.008C932.103 373.546 940.584 376.587 942.793 373.799Z" fill="url(#paint44_linear)"/>
<g style="mix-blend-mode:color-burn" opacity="0.3">
<path style="mix-blend-mode:color-burn" opacity="0.3" d="M979.515 284.994C991.906 272.587 1003.76 272.34 1015.62 268.122C1021.85 277.892 1022 290.211 1015.05 298.984C1006.04 310.363 988.487 311.469 975.856 301.46C974.052 300.033 972.407 298.418 970.947 296.642C973.162 292.326 976.055 288.393 979.515 284.994Z" fill="url(#paint45_linear)"/>
</g>
<path d="M1050.83 216.217C1050.83 216.217 1052.32 214.017 1053.24 212.398C1054.16 210.779 1058.71 206.065 1058.71 206.065C1058.71 206.065 1059.14 206.714 1058.17 207.901C1057.21 209.089 1055.14 211.146 1055.72 211.892C1056.29 212.638 1057.78 213.232 1056.87 214.812C1055.95 216.392 1054.07 215.516 1053.25 216.794C1052.42 218.073 1051.59 219.461 1051.59 219.461L1050.83 216.217Z" fill="url(#paint46_linear)"/>
<path d="M930.348 265.112C930.348 265.112 927.957 266.004 925.945 266.773C923.933 267.542 922.623 269.368 921.078 270.361C919.534 271.354 921.539 271.292 922.775 271.26C924.011 271.227 926.454 270.591 927.152 269.599C927.85 268.606 928.473 267.83 928.651 267.84C928.829 267.85 931.571 266.75 931.571 266.75L930.348 265.112Z" fill="url(#paint47_linear)"/>
<path d="M963.552 371.255C963.507 370.955 963.537 370.648 963.639 370.361C963.741 370.075 963.912 369.818 964.136 369.614C964.811 369.046 965.83 369.202 966.443 369.559C966.8 369.766 967.063 370.065 967.877 372.316C968.737 374.695 968.695 375.061 968.5 375.236C968.101 375.623 967.134 375.21 966.927 375.123C966.232 374.828 966.093 374.474 964.756 372.943C963.851 371.921 963.617 371.742 963.552 371.255Z" fill="url(#paint48_linear)"/>
<path d="M964.607 367.781L964.59 370.434C965.158 370.808 965.531 370.817 965.758 370.551L966.524 367.972L964.607 367.781Z" fill="url(#paint49_linear)"/>
<path d="M989.43 373.533C989.252 373.287 989.136 373.001 989.095 372.7C989.053 372.399 989.086 372.092 989.19 371.807C989.515 370.993 990.488 370.662 991.211 370.694C991.627 370.714 992 370.86 993.758 372.482C995.617 374.198 995.747 374.539 995.663 374.798C995.484 375.324 994.437 375.405 994.213 375.421C993.46 375.48 993.171 375.23 991.293 374.487C990.001 373.984 989.716 373.935 989.43 373.533Z" fill="url(#paint50_linear)"/>
<path d="M990.047 369.16V371.813C990.611 372.187 990.988 372.2 991.212 371.93L991.981 369.351L990.047 369.16Z" fill="url(#paint51_linear)"/>
<path d="M963.88 368.225L966.703 368.683C969.69 359.111 972.905 349.337 976.349 339.359C980.125 328.427 983.974 317.854 987.896 307.641C988.399 311.729 988.82 316.495 988.996 321.822C989.175 327.014 989.091 332.212 988.746 337.396C988.152 345.883 987.312 346.805 987.124 352.126C986.944 358.248 987.756 364.358 989.528 370.22L992.25 370.328C999.927 345.862 1003.02 320.19 1001.39 294.601L976.728 292.885C974.251 297.157 972.325 301.726 970.995 306.482C969.113 313.266 969.496 316.745 967.426 328.415C966.352 334.447 965.918 335.378 965.178 339.381C963.942 346.016 962.858 355.662 963.88 368.225Z" fill="url(#paint52_linear)"/>
<path style="mix-blend-mode:multiply" opacity="0.3" d="M971.68 345.445C973.231 337.571 970.346 337.448 972.374 330.715C974.24 324.522 976.952 323.733 979.687 315.862C981.88 309.545 980.845 308.004 982.338 305.295C984.181 301.943 988.915 298.562 1001.58 298.199C1001.52 296.973 1001.46 295.772 1001.39 294.607L976.728 292.891C974.251 297.164 972.325 301.732 970.995 306.489C969.113 313.273 969.496 316.751 967.426 328.422C966.352 334.453 965.918 335.384 965.178 339.388C963.948 346.016 962.877 355.662 963.899 368.225L966.722 368.683L966.988 367.845C966.555 366.968 966.228 366.042 966.015 365.088C964.568 358.518 969.746 355.273 971.68 345.445Z" fill="url(#paint53_linear)"/>
<path d="M929.589 264.456L931.156 267.587C934.781 266.746 938.319 265.566 941.724 264.064C948.566 261.043 949.77 258.95 956.207 256.627C960.626 255.031 966.288 253.058 970.298 255.845C971.498 256.707 972.453 257.866 973.069 259.21C972.53 264.401 971.946 268.502 971.641 271.049C968.948 293.537 968.559 297.631 971.317 300.178C973.721 302.394 975.359 300.538 987.156 301.956C997.918 303.254 1000.01 305.201 1002.95 303.504C1007.72 300.739 1006.76 292.936 1007.79 283.417C1008.64 275.562 1011.06 264.566 1018.14 251.559C1025.26 250.174 1031.94 247.077 1037.61 242.536C1048.36 233.867 1051.83 222.693 1052.87 218.66L1050.13 215.922C1047.08 219.903 1042.18 225.162 1034.88 228.838C1024.98 233.812 1017.12 232.644 1002.4 233.455C996.614 233.779 979.321 234.821 965.739 239.272C956.48 242.306 943.287 248.788 929.589 264.456Z" fill="url(#paint54_linear)"/>
<path d="M998.288 227.44C998.288 227.44 997.639 230.305 996.341 232.306C995.173 234.117 990.686 234.578 989.742 234.847C988.798 235.116 991.039 236.855 993.499 237.559C995.958 238.263 1003.17 239 1004.63 238.286C1006.08 237.572 1003.75 237.225 1002.09 236.245C1000.43 235.265 1000.04 231.599 1000.64 230.081C1001.25 228.562 998.288 227.44 998.288 227.44Z" fill="url(#paint55_linear)"/>
<path d="M1003.04 226.817C1003.73 225.876 1003.53 224.023 1002.45 223.124C1001.65 222.459 1000.65 222.553 999.913 222.625C999.589 222.657 997.191 222.914 996.481 224.591C996.261 225.189 996.248 225.844 996.445 226.45C996.643 226.948 996.898 227.421 997.204 227.861C997.61 228.51 997.581 228.488 997.704 228.676C998.255 229.479 998.92 230.197 999.68 230.807C999.775 230.418 999.904 230.038 1000.07 229.672C1000.27 229.197 1000.54 228.751 1000.87 228.345C1001.75 227.271 1002.5 227.553 1003.04 226.817Z" fill="url(#paint56_linear)"/>
<path d="M998.271 229.896C998.626 230.435 999.115 230.873 999.69 231.167C1000.27 231.461 1000.91 231.601 1001.55 231.573C1003.5 231.453 1003.82 227.06 1002.57 226.122C1002.28 225.95 1001.96 225.838 1001.63 225.793C1001.3 225.748 1000.96 225.772 1000.64 225.863C1000.24 225.973 1000.1 226.142 999.439 226.311C998.829 226.463 998.657 226.395 998.466 226.551C998.274 226.706 998.067 227.2 998.443 228.497C998.073 228.118 997.622 227.972 997.304 228.121C997.195 228.18 997.104 228.267 997.042 228.374C996.772 228.877 997.23 229.519 998.271 229.896Z" fill="url(#paint57_linear)"/>
<g style="mix-blend-mode:multiply" opacity="0.3">
<path style="mix-blend-mode:multiply" opacity="0.3" d="M992.818 280.325C992.007 273.573 986.582 273.229 983.032 264.667C979.317 255.703 983.172 251.04 979.509 247.838C974.107 243.124 961.34 249.499 956.025 252.143C949.187 255.581 942.987 260.162 937.694 265.689C938.969 265.238 940.322 264.716 941.739 264.067C948.582 261.046 949.786 258.953 956.223 256.63C960.642 255.034 966.304 253.061 970.314 255.849C971.514 256.71 972.469 257.87 973.085 259.213C972.546 264.404 971.962 268.505 971.657 271.052C968.964 293.54 968.575 297.634 971.333 300.181C973.737 302.397 975.375 300.542 987.172 301.959C989.745 302.284 991.815 302.608 993.525 302.933C990.28 299.458 989.307 296.444 989.284 294.004C989.249 288.715 993.548 286.532 992.818 280.325Z" fill="url(#paint58_linear)"/>
</g>
<path d="M913.152 374.049C906.563 367.099 873.063 412.185 817.647 422.973C756.56 434.867 724.832 394.178 675.213 379.581C674.119 381.482 673.1 383.429 672.157 385.421C668.017 394.142 665.308 403.499 663.546 412.976C661.912 422.032 660.982 431.2 660.766 440.399C679.107 447.553 694.771 464.058 738.209 469.161C751.157 470.683 817.349 477.162 869.721 436.285C899.181 413.275 918.548 379.743 913.152 374.049Z" fill="url(#paint59_linear)"/>
<path d="M924.894 379.136C928.982 380.129 931.931 422.36 906.887 452.722C888.808 474.638 858.755 487.198 853.265 481.293C849.372 477.12 857.71 463.646 859.138 461.333C869.4 444.711 882.294 442.291 895.152 431.976C921.276 411.007 921.26 378.257 924.894 379.136Z" fill="url(#paint60_linear)"/>
<path d="M676.42 448.546C679.282 447.709 683.107 452.965 686.287 457.335C691.046 463.87 696.604 471.507 695.105 480.676C693.632 489.699 685.897 496.724 683.694 495.721C681.809 494.861 685.433 488.794 682.656 480.676C680.417 474.129 676.703 474.126 674.22 467.698C671.125 459.746 672.91 449.574 676.42 448.546Z" fill="white"/>
<path d="M677.838 490.102C692.578 493.671 702.289 499.426 707.96 503.488C711.033 505.691 712.451 507.057 713.216 509.066C717.583 520.477 695.151 537.728 692.76 539.535L689.626 532.228C691.945 519.506 695.79 515.512 699.035 514.325C699.937 514.001 701.455 513.637 701.426 513.209C701.354 512.2 692.834 513.64 684.691 510.662C676.547 507.684 668.41 500.172 669.867 495.202C670.133 494.293 671.249 491.672 677.838 490.102Z" fill="url(#paint61_linear)"/>
<path d="M692.131 573.498C692.131 573.498 690.758 573.988 690.755 575.072C690.752 576.155 692.144 580.938 693.659 582.635C695.174 584.332 695.31 581.801 695.216 580.169C695.122 578.537 694.726 574.884 694.35 574.176C693.973 573.469 692.131 573.498 692.131 573.498Z" fill="url(#paint62_linear)"/>
<path style="mix-blend-mode:multiply" opacity="0.3" d="M696.536 506.791C699.216 506.739 705.491 506.24 707.162 509.341C708.554 511.937 706.114 515.853 704.612 518.267C700.527 524.827 696.565 525.499 693.775 529.529C692.695 531.089 691.715 533.27 691.403 536.381C690.811 535.003 690.218 533.622 689.625 532.238C691.945 519.516 695.79 515.522 699.034 514.335C699.936 514.01 701.455 513.647 701.426 513.219C701.354 512.21 692.834 513.65 684.69 510.672C677.286 507.963 669.879 501.48 669.724 496.591C681.446 504.987 690.268 506.905 696.536 506.791Z" fill="url(#paint63_linear)"/>
<path d="M691.339 568.888C691.42 570.559 691.559 571.957 691.689 572.995C691.971 575.292 692.231 576.201 692.588 577.028C692.912 577.752 693.678 579.325 694.048 579.215C694.417 579.105 694.048 577.362 693.743 572.512C693.7 571.808 693.571 569.569 693.571 569.569L691.339 568.888Z" fill="url(#paint64_linear)"/>
<path d="M669.341 491.059C675.892 494.987 681.715 500.019 686.553 505.931C690.336 510.574 696.092 517.634 698.178 528.163C699.287 533.773 698.739 538.808 697.604 548.645C696.703 556.435 695.36 564.167 693.584 571.805L691.637 572.59C689.104 568.001 687.453 562.979 686.77 557.782C685.43 547.137 689.411 543.756 687.5 536.206C685.846 529.665 681.047 525.658 671.453 517.638C663.569 511.048 656.298 507.138 653.608 498.92C653.147 497.525 652.758 495.812 653.508 494.245C655.101 490.867 661.259 489.686 669.341 491.059Z" fill="url(#paint65_linear)"/>
<path d="M661.048 448.114C663.254 447.641 666.888 447.735 670.334 445.013C671.375 444.195 675.061 441.291 674.613 437.138C674.221 433.482 670.756 431.516 670.331 431.298C667.878 429.948 665.431 430.247 662.719 430.62C659.202 431.1 658.031 432.061 655.581 432.719C649.537 434.342 647.489 430.948 641.403 431.237C633.616 431.603 632.947 437.349 626.403 437.492C619.051 437.654 617.643 430.461 610.388 429.241C600.331 427.551 585.081 438.391 585.383 450.892C585.562 458.111 590.938 466.384 597.803 468.866C601.804 470.313 606.125 469.84 607.355 472.458C608.234 474.311 606.261 475.738 606.446 478.947C606.686 483.106 610.268 486.026 610.849 486.5C616.216 490.874 628.256 488.664 636.481 482.47C651.305 471.306 649.063 450.694 661.048 448.114Z" fill="url(#paint66_linear)"/>
<path d="M645.53 447.67C651.221 446.969 656.946 446.579 662.68 446.502C676.203 446.317 678.137 448.033 678.633 449.302C679.558 451.667 677.984 452.871 678.873 456.978C679.412 459.444 678.902 460.57 679.941 463.221C680.953 465.816 680.158 467.192 679.266 473.25C678.121 480.994 677.592 484.93 679.759 488.051C681.264 490.222 682.952 490.407 682.789 491.435C682.465 493.632 674.857 492.408 665.246 496.626C662.672 497.805 660.171 499.135 657.755 500.61C652.726 503.563 651.798 504.692 649.468 506.029C642.103 510.247 631.04 510.665 625.242 505.552C623.081 503.644 621.507 500.841 622.215 499.812C623.188 498.417 627.497 501.59 631.458 499.653C634.083 498.356 633.583 496.295 636.617 493.852C640.27 490.909 642.807 492.451 645.293 490.536C649.17 487.548 647.408 480.4 646.318 468.409C645.696 461.514 645.433 454.592 645.53 447.67Z" fill="white"/>
<path d="M660.162 444.886C658.319 446.031 655.338 447.524 655.01 447.933C654.682 448.341 664.039 449.938 669.863 447.002C669.863 447.002 670.769 446.499 667.268 445.798C666.518 445.649 666.664 444.176 666.765 442.686L666.064 441.389C666.064 441.389 662.008 443.741 660.162 444.886Z" fill="url(#paint67_linear)"/>
<path d="M665.35 439.955C665.35 439.955 664.614 443.079 667.365 444.62C669.828 446.006 673.993 440.337 673.205 438.232C672.99 437.787 672.689 437.389 672.319 437.062C671.949 436.735 671.518 436.484 671.051 436.324C670.366 436.11 667.79 436.194 666.684 438.365C666.395 437.716 665.876 437.391 665.529 437.502C665.087 437.631 665.022 438.436 665.006 438.618C664.978 439.088 665.098 439.556 665.35 439.955Z" fill="url(#paint68_linear)"/>
<path style="mix-blend-mode:multiply" opacity="0.3" d="M669.016 489.696C666.232 490.848 665.856 493.343 662.005 494.757C658.332 496.107 657.099 494.417 653.436 495.536C647.92 497.22 645.831 502.528 645 502.025C644.238 501.568 644.971 496.487 648.508 493.197C652.57 489.417 656.943 491.149 659.539 487.224C660.551 485.699 661.33 483.259 660.448 481.384C659.254 478.84 656.129 479.722 654.474 477.617C651.502 473.837 658.459 467.023 656.554 461.261C655.792 458.961 653.368 456.07 645.555 454.149C645.662 459.924 645.996 464.752 646.327 468.425C647.418 480.43 649.179 487.568 645.302 490.552C642.817 492.467 640.28 490.926 636.626 493.868C633.593 496.311 634.092 498.388 631.468 499.67C627.506 501.616 623.191 498.433 622.224 499.829C621.517 500.857 623.09 503.66 625.251 505.568C631.049 510.681 642.123 510.276 649.478 506.045C651.807 504.708 652.722 503.579 657.764 500.627C660.18 499.151 662.682 497.821 665.256 496.642C672.001 493.683 677.747 493.398 680.693 492.749C674.83 488.823 671.268 488.758 669.016 489.696Z" fill="url(#paint69_linear)"/>
<path d="M693.146 494.654L662.56 496.14C662.352 496.151 662.151 496.212 661.972 496.318C661.793 496.423 661.642 496.57 661.531 496.746L660.688 498.102C660.592 498.255 660.54 498.432 660.537 498.612C660.534 498.792 660.58 498.97 660.671 499.126C660.761 499.282 660.892 499.411 661.05 499.498C661.208 499.585 661.387 499.628 661.567 499.621L693.963 498.388L693.146 494.654Z" fill="#97A6B7"/>
<path d="M724.955 477.62L693.35 478.24C692.891 478.249 692.442 478.377 692.047 478.612C691.653 478.847 691.326 479.18 691.098 479.58L680.155 498.832L713.528 497.502C713.979 497.484 714.418 497.354 714.806 497.124C715.194 496.893 715.519 496.569 715.75 496.182L725.886 479.245C725.985 479.082 726.039 478.895 726.041 478.704C726.043 478.512 725.994 478.324 725.899 478.158C725.804 477.992 725.667 477.855 725.501 477.76C725.334 477.666 725.146 477.617 724.955 477.62Z" fill="#97A6B7"/>
<g style="mix-blend-mode:multiply" opacity="0.3">
<path d="M691.105 479.573C691.333 479.176 691.659 478.845 692.052 478.611C692.446 478.377 692.893 478.25 693.35 478.24H694.044C694.112 479.225 694.474 480.168 695.083 480.946C697.029 483.298 700.274 481.848 702.681 484.336C705.332 487.071 702.882 490.325 705.254 492.869C707.746 495.546 711.779 493.366 716.415 495.079L715.75 496.195C715.519 496.582 715.194 496.906 714.806 497.137C714.418 497.367 713.979 497.497 713.528 497.515L680.155 498.845L691.105 479.573Z" fill="#97A6B7"/>
</g>
<path d="M666.343 493.631L667.537 490.478C663.138 489.271 657.054 487.49 650.812 485.257C649.795 484.951 648.909 484.314 648.294 483.447C645.092 479.203 653.235 471.718 653.089 462.004C652.989 455.268 648.907 447.566 645.303 447.478C637.99 447.3 621.868 478.327 635.446 491.571C642.194 498.141 654.783 498.907 666.343 493.631Z" fill="white"/>
<path d="M667.537 490.478C670.298 489.011 673.604 490.514 673.818 490.614C674.708 491.037 675.514 491.616 676.2 492.324C676.3 492.46 677.498 494.121 677.063 494.654C676.712 495.079 675.36 494.725 673.731 493.713C672.763 493.576 671.784 493.552 670.811 493.641C668.575 493.849 667.55 494.553 666.739 493.943C666.452 493.687 666.245 493.354 666.142 492.983C666.039 492.613 666.045 492.221 666.158 491.854C666.388 491.101 667.07 490.724 667.537 490.478Z" fill="url(#paint70_linear)"/>
<path d="M961.648 578.602C961.648 578.602 961.414 580.441 961.57 581.055C961.726 581.668 967.086 582.119 968.887 581.901C970.687 581.684 967.806 579.835 966.651 579.488C965.496 579.14 961.648 578.602 961.648 578.602Z" fill="url(#paint71_linear)"/>
<path d="M964.337 575.533L963.773 579.222C963.773 579.222 962.336 579.87 961.648 579.222L961.57 575.361L964.337 575.533Z" fill="url(#paint72_linear)"/>
<path d="M934.199 575.37C934.199 575.37 935.332 576.211 935.03 577.22C934.728 578.229 932.081 582.265 930.196 583.413C928.311 584.562 928.898 582.171 929.449 580.685C930.001 579.199 931.396 575.919 931.948 575.37C932.499 574.822 934.199 575.37 934.199 575.37Z" fill="url(#paint73_linear)"/>
<path d="M936.24 571.315C935.691 572.843 935.163 574.102 934.751 575.026C933.839 577.08 933.339 577.849 932.775 578.514C932.281 579.095 931.113 580.338 930.802 580.136C930.491 579.935 931.337 578.42 932.979 574.004C933.219 573.355 933.975 571.321 933.975 571.321L936.24 571.315Z" fill="url(#paint74_linear)"/>
<path d="M975.535 507.44C976.109 513.103 976.178 518.806 975.739 524.48C975.009 533.912 973.124 539.879 970.759 549.93C969.312 556.075 967.365 565.118 965.603 576.428C964.648 576.979 963.536 577.197 962.443 577.048C961.766 576.945 961.12 576.699 960.545 576.327C955.921 562.201 957.3 553.444 959.52 547.99C960.47 545.667 961.622 543.834 962.239 540.258C963.053 535.531 962.047 532.887 960.616 521.933C959.594 514.127 959.769 512.92 960.451 511.752C963.17 507.077 971.505 507.168 975.535 507.44Z" fill="url(#paint75_linear)"/>
<path d="M959.62 509.088C956.787 523.715 954.01 531.398 951.904 535.742C950.386 538.808 949.085 541.977 948.011 545.226C947.041 548.187 946.252 551.204 945.649 554.262C944.676 558.745 942.259 565.293 935.766 573.875C935.685 573.923 934.579 574.549 933.518 573.991C933.125 573.778 932.808 573.448 932.609 573.047C933.459 564.839 934.433 557.941 935.28 552.607C935.458 551.491 936.253 546.608 937.463 540.151C937.943 537.627 938.647 533.925 939.488 530.126C940.536 525.392 942.145 518.952 944.621 511.233L959.62 509.088Z" fill="url(#paint76_linear)"/>
<path style="mix-blend-mode:multiply" opacity="0.3" d="M959.519 547.996C960.47 545.673 961.622 543.837 962.238 540.265C963.053 535.538 962.047 532.893 960.616 521.94C959.594 514.134 959.769 512.927 960.451 511.759C961.933 509.215 965.074 508.086 968.276 507.625C968.234 507.787 968.189 507.95 968.156 508.112C966.476 515.788 972.89 520.473 969.996 528.912C968.568 533.072 966.294 534.026 965.762 538.85C965.265 543.373 967.06 544.314 966.683 548.421C966.109 554.563 961.745 556.053 960.61 560.751C959.87 563.807 960.493 568.278 965.882 574.747C965.791 575.305 965.703 575.863 965.613 576.431C964.657 576.983 963.545 577.201 962.452 577.051C961.776 576.948 961.129 576.702 960.554 576.331C955.921 562.207 957.287 553.45 959.519 547.996Z" fill="url(#paint77_linear)"/>
<path d="M936.717 439.731C938.579 440.509 940.052 441.028 941.937 441.246C945.217 441.635 947.239 440.866 951.869 439.799C957.774 438.436 960.726 437.755 962.092 438.287C966.706 440.078 968.565 447.949 967.663 453.958C966.884 459.149 962.76 465.352 957.809 466.868C953.935 468.055 951.249 466.102 948.793 468.571C946.583 470.784 948.241 473.665 945.912 476.063C944.238 477.785 942.823 477.555 939.54 478.944C933.764 481.39 933.91 484.261 929.939 485.932C925.072 487.973 922.967 484.482 914.009 483.836C904.408 483.149 902.591 486.854 897.332 485.079C890.155 482.652 886.485 473.37 885.525 467.419C883.312 453.689 892.582 439.445 904.648 434.027C908.052 432.499 915.637 429.089 922.493 431.937C926.153 433.466 928.829 436.438 936.717 439.731Z" fill="url(#paint78_linear)"/>
<path d="M1009.62 468.227C1010.27 466.864 1011.06 465.575 1011.98 464.382C1013.26 462.848 1016.78 464.622 1018.02 464.665C1018.25 464.665 1018.38 464.736 1018.43 464.837C1018.55 465.077 1017.62 465.537 1015.83 466.459C1012.95 467.971 1012.73 468.146 1012 468.217C1011.21 468.271 1010.41 468.275 1009.62 468.227Z" fill="url(#paint79_linear)"/>
<path d="M1009.33 466.469C1009.94 467.297 1010.57 468.125 1011.19 468.954C1010.23 472.931 1008.06 476.511 1004.98 479.2C1004.36 479.729 999.086 484.135 991.523 483.856C980.047 483.434 974.025 472.62 973.724 472.059C971.923 468.428 965.427 454.908 968.88 452.209C971.284 450.33 977.987 454.088 981.796 457.154C987.798 461.988 987.192 465.589 993.285 469.262C995.433 470.56 999.907 473.263 1004.25 471.533C1007.17 470.381 1008.7 467.76 1009.33 466.469Z" fill="white"/>
<path d="M1009.33 466.469C1009.94 467.297 1010.57 468.125 1011.19 468.954C1010.23 472.931 1008.06 476.511 1004.98 479.2C1004.36 479.729 999.086 484.135 991.523 483.856C980.047 483.434 974.025 472.62 973.724 472.059C971.923 468.428 965.427 454.908 968.88 452.209C971.284 450.33 977.987 454.088 981.796 457.154C987.798 461.988 987.192 465.589 993.285 469.262C995.433 470.56 999.907 473.263 1004.25 471.533C1007.17 470.381 1008.7 467.76 1009.33 466.469Z" fill="url(#paint80_linear)"/>
<path d="M979.207 516.664C981.277 515.318 981.657 512.446 981.803 510.775C982.708 500.584 978.883 492.107 978.273 479.82C978.094 476.105 978.37 475.31 978.065 469.47C977.445 457.465 975.995 455.288 974.756 454.049C971.754 451.047 967.391 450.983 964.818 450.944C963.796 450.944 954.344 450.905 950.617 456.813C947.797 461.287 951.59 463.857 950.432 472.163C949.014 482.295 941.652 490.634 939.981 492.447C937.57 495.062 935.29 496.805 933.356 500.828C931.451 504.789 932.36 505.798 930.562 509.108C927.259 515.185 921.724 516.327 922.282 518.517C922.711 520.21 926.331 520.866 928.7 520.788C932.214 520.684 933.151 518.971 936.162 518.192C942.002 516.687 943.949 521.69 949.906 521.112C956.583 520.444 957.067 513.861 963.049 514.075C966.33 514.189 967.53 516.217 974.434 517.177C976.384 517.453 977.893 517.518 979.207 516.664Z" fill="url(#paint81_linear)"/>
<path style="mix-blend-mode:multiply" opacity="0.3" d="M979.207 516.664C981.277 515.318 981.657 512.446 981.803 510.776C982.708 500.585 978.883 492.107 978.273 479.82C978.094 476.105 978.37 475.31 978.065 469.47C977.572 459.928 977.377 456.372 974.756 454.049C973.545 452.978 971.239 451.615 969.889 452.394C967.4 453.831 971.576 460.641 968.753 465.953C966.346 470.472 961.797 468.383 954.883 472.99C947.336 478.016 950.256 482.169 939.981 492.457C937.752 494.686 935.29 496.818 933.356 500.838C931.451 504.799 932.36 505.808 930.562 509.118C927.259 515.195 921.724 516.337 922.282 518.527C922.711 520.22 926.331 520.876 928.7 520.798C932.214 520.694 933.151 518.981 936.162 518.202C942.002 516.697 943.949 521.7 949.906 521.122C956.583 520.454 957.067 513.871 963.049 514.085C966.33 514.198 967.53 516.226 974.434 517.187C976.384 517.453 977.893 517.518 979.207 516.664Z" fill="url(#paint82_linear)"/>
<path style="mix-blend-mode:multiply" opacity="0.3" d="M926.63 518.734C930.647 517.514 931.344 514.059 936.039 513.144C940.484 512.281 941.85 514.98 945.448 513.767C949.763 512.317 948.949 508.076 953.108 506.21C958.491 503.797 963.689 509.186 966.872 506.535C968.896 504.841 967.027 502.47 969.253 498.566C971.69 494.287 975.216 494.881 977.014 491.321C978.733 487.921 976.751 484.933 975.878 480.04C975.229 476.361 975.093 470.995 977.64 463.905C977.799 465.482 977.939 467.322 978.049 469.483C978.354 475.323 978.078 476.118 978.257 479.833C978.85 492.12 982.692 500.597 981.787 510.788C981.637 512.476 981.258 515.331 979.191 516.677C977.893 517.531 976.368 517.466 974.431 517.193C967.527 516.22 966.32 514.205 963.046 514.091C957.063 513.877 956.58 520.46 949.903 521.129C943.946 521.722 942.006 516.719 936.159 518.209C933.139 518.984 932.201 520.697 928.697 520.804C926.559 520.869 923.411 520.337 922.5 518.991C923.878 519.216 925.29 519.129 926.63 518.734Z" fill="url(#paint83_linear)"/>
<path d="M961.235 445.253C961.235 445.253 961.511 449.85 960.372 450.713C959.536 451.281 958.643 451.762 957.709 452.147C957.658 452.17 957.616 452.208 957.588 452.255C957.561 452.303 957.549 452.358 957.554 452.413C957.559 452.468 957.582 452.52 957.618 452.561C957.655 452.603 957.704 452.632 957.757 452.644L964.357 454.133C964.512 454.171 964.674 454.172 964.829 454.136C964.985 454.1 965.13 454.028 965.252 453.925L967.789 451.797C967.828 451.765 967.856 451.722 967.87 451.674C967.883 451.625 967.882 451.574 967.867 451.527C967.851 451.479 967.821 451.437 967.781 451.407C967.742 451.376 967.693 451.359 967.643 451.356L965.486 451.232C965.01 451.132 964.575 450.894 964.234 450.548C963.893 450.202 963.661 449.763 963.568 449.286L962.952 446.233L961.235 445.253Z" fill="url(#paint84_linear)"/>
<path d="M961.327 446.836C961.327 446.836 962.501 448.458 964.344 447.777C965.992 447.177 965.009 442.91 963.695 442.427C963.398 442.348 963.088 442.329 962.783 442.372C962.478 442.414 962.185 442.516 961.921 442.673C961.544 442.907 960.538 444.156 961.113 445.558C960.697 445.438 960.331 445.558 960.24 445.752C960.123 446.015 960.473 446.372 960.564 446.453C960.772 446.657 961.039 446.791 961.327 446.836Z" fill="url(#paint85_linear)"/>
<path d="M974.849 468.629L974.084 465.498C974.029 465.248 974.053 464.986 974.151 464.749C974.249 464.512 974.417 464.311 974.632 464.171C975.751 463.354 976.027 462.715 976.689 462.549C977.899 462.225 978.49 463.114 977.604 463.48C976.718 463.847 976.04 464.574 976.404 465.852C976.767 467.13 976.076 468.214 974.849 468.629Z" fill="url(#paint86_linear)"/>
<path d="M976.861 468.711L973.688 466.712C973.205 467.783 971.598 470.959 967.961 472.714C964.766 474.252 959.685 474.846 957.404 472.367C955.058 469.817 955.457 465.168 956.025 459.879C956.45 455.956 957.277 453.714 956.233 453.014C955.188 452.313 953.053 453.718 950.717 455.256C949.439 456.099 947.067 457.66 945.467 459.61C941.846 464.029 940.584 472.422 944.715 479.129C947.823 484.177 953.695 487.779 959.889 487.461C968.429 487.019 976.164 479.194 976.861 468.711Z" fill="url(#paint87_linear)"/>
<path d="M1055.15 587.414C1055.28 586.726 1057.5 586.116 1058.59 587.025C1059.14 587.482 1059.51 588.407 1059.2 588.825C1059.08 588.978 1059.55 589.244 1059.1 589.25C1057.61 589.266 1055.03 588.095 1055.15 587.414Z" fill="url(#paint88_linear)"/>
<path d="M1057.58 587.417L1059.88 587.531C1059.08 586.084 1060.04 582.145 1060.04 582.145L1057.56 582.216C1057.56 582.216 1057.62 583.361 1057.77 585.058C1057.79 585.849 1057.73 586.64 1057.58 587.417Z" fill="url(#paint89_linear)"/>
<path d="M1057.28 587.381C1057.28 587.381 1060.02 586.733 1060.32 587.294C1060.61 587.855 1060.85 589.296 1059.1 589.241C1057.36 589.185 1057.12 587.845 1057.28 587.381Z" fill="url(#paint90_linear)"/>
<path d="M1026.05 592.391C1026.27 591.742 1028.55 591.418 1029.51 592.488C1029.98 593.017 1030.22 593.987 1029.85 594.354C1029.72 594.49 1030.15 594.821 1029.7 594.763C1028.22 594.571 1025.83 593.05 1026.05 592.391Z" fill="url(#paint91_linear)"/>
<path d="M1028.74 593.03L1031.02 593.475C1030.43 591.927 1031.95 588.163 1031.95 588.163L1029.48 587.881C1029.48 587.881 1029.38 589.02 1029.28 590.723C1029.19 591.509 1029.01 592.283 1028.74 593.03Z" fill="url(#paint92_linear)"/>
<path d="M1028.15 592.657C1028.15 592.657 1030.96 592.417 1031.18 592.981C1031.4 593.546 1031.42 595.035 1029.7 594.746C1027.98 594.458 1027.93 593.095 1028.15 592.657Z" fill="url(#paint93_linear)"/>
<path d="M1048.91 513.511C1049.53 524.029 1050.4 534.952 1051.55 546.28C1052.89 559.398 1054.52 571.912 1056.35 583.842C1057.77 584.295 1059.29 584.295 1060.7 583.842C1060.7 583.842 1063.34 579.517 1065.36 568.025C1066.65 560.653 1066.73 560.744 1066.75 559.459C1066.82 552.97 1064.55 551.092 1064.11 545.29C1063.71 539.924 1065.41 538.318 1066.44 532.277C1067.22 527.631 1067.52 520.863 1065.04 512.015L1048.91 513.511Z" fill="url(#paint94_linear)"/>
<path d="M1037.59 513.18C1030.24 538.009 1027.3 563.936 1028.9 589.782L1031.85 590.606C1037.57 584.63 1039.61 579.134 1040.39 575.12C1041.54 569.186 1039.8 567.171 1041.32 560.462C1041.66 558.917 1042.15 557.256 1047.83 546.128C1053.25 535.505 1054.36 533.964 1055.28 530.148C1056.31 525.718 1056.47 521.129 1055.75 516.638L1037.59 513.18Z" fill="url(#paint95_linear)"/>
<path d="M1013.22 490.673L1003.52 467.961C1003.41 467.694 1003.35 467.406 1003.36 467.117C1003.37 466.827 1003.44 466.542 1003.57 466.283C1003.7 466.024 1003.89 465.797 1004.12 465.616C1004.34 465.436 1004.61 465.307 1004.89 465.239L1022.65 460.924C1023.11 460.811 1023.6 460.869 1024.03 461.086C1024.45 461.303 1024.79 461.666 1024.97 462.108L1033.89 483.937C1033.99 484.194 1034.04 484.47 1034.03 484.747C1034.03 485.024 1033.96 485.297 1033.84 485.548C1033.72 485.798 1033.55 486.021 1033.34 486.202C1033.13 486.384 1032.89 486.519 1032.62 486.601L1015.64 491.792C1015.17 491.937 1014.66 491.903 1014.22 491.696C1013.77 491.489 1013.41 491.125 1013.22 490.673Z" fill="#26264F"/>
<path d="M1013.66 489.595L1004.6 468.383C1004.5 468.134 1004.44 467.864 1004.45 467.594C1004.46 467.323 1004.53 467.057 1004.65 466.815C1004.77 466.573 1004.94 466.36 1005.16 466.191C1005.37 466.023 1005.61 465.903 1005.88 465.839L1022.47 461.809C1022.9 461.705 1023.36 461.759 1023.75 461.962C1024.15 462.164 1024.46 462.503 1024.63 462.916L1032.96 483.304C1033.06 483.544 1033.11 483.802 1033.1 484.062C1033.09 484.321 1033.03 484.576 1032.92 484.81C1032.81 485.045 1032.65 485.253 1032.45 485.423C1032.26 485.593 1032.03 485.72 1031.78 485.796L1015.92 490.663C1015.48 490.797 1015 490.762 1014.58 490.565C1014.16 490.368 1013.83 490.022 1013.66 489.595Z" fill="url(#paint96_linear)"/>
<path d="M1008.07 483.343L1007.77 480.67L1006.23 477.727C1006.02 477.327 1005.91 476.882 1005.91 476.429V473.509L1007.77 477.815C1008.3 477.326 1008.86 476.878 1009.46 476.475C1009.93 476.244 1009.87 477.175 1009.52 477.523C1009.17 477.87 1009.69 480.722 1009.34 481.014L1009.46 482.759L1008.07 483.343Z" fill="url(#paint97_linear)"/>
<path d="M1022.84 466.297C1024.29 462.757 1027.4 460.723 1029.01 459.665C1032.82 457.167 1035.26 457.624 1044.02 456.291C1055.7 454.516 1057.08 452.832 1061.01 454.198C1066.16 455.989 1068.85 460.664 1070.09 462.806C1076.31 473.61 1069.04 479.103 1070.91 500.623C1071.67 509.413 1073.62 517.05 1068.93 521.567C1067.95 522.521 1066.83 523.017 1064.62 524.013C1055.86 527.958 1047.99 527.277 1043.21 526.803C1037.95 526.284 1035.29 525.986 1033.9 524.127C1031.67 521.161 1033.96 517.391 1034.36 510.863C1034.65 506.178 1033.58 502.463 1031.44 495.04C1026.5 477.776 1020.07 473.081 1022.84 466.297Z" fill="url(#paint98_linear)"/>
<path d="M1042.38 449.922C1041.85 448.03 1042.77 446.278 1042.98 445.898C1043.84 444.318 1044.06 444.101 1044.46 443.828L1045.03 443.478L1045.1 443.452C1045.71 443.325 1046.34 443.287 1046.96 443.338C1047.77 443.51 1048.62 446.787 1048.38 451.424C1048.41 451.599 1048.45 451.777 1048.47 451.956C1048.6 452.689 1048.7 453.406 1048.78 454.107C1048.85 454.779 1049.8 454.756 1050.48 454.72C1053.21 454.545 1054.55 454.779 1054.67 455.184C1054.89 455.95 1051.64 458.429 1047.64 459.006C1042.26 459.045 1037.9 458.474 1038.36 457.627C1038.57 457.251 1042.73 456.161 1043.91 455.084C1044.98 454.11 1044.88 453.075 1044.98 452.345C1044.65 452.176 1042.78 451.31 1042.38 449.922Z" fill="url(#paint99_linear)"/>
<path d="M1043.36 442.161C1043.36 443.598 1044.05 445.129 1044.39 445.376C1044.59 445.537 1044.77 445.728 1044.91 445.944C1044.95 445.997 1044.97 446.055 1044.99 446.116C1045.32 447.018 1043.87 448.085 1044.15 448.488C1044.35 448.783 1045.33 448.39 1045.44 448.643C1045.56 448.896 1044.74 449.377 1044.86 449.662C1044.96 449.879 1045.46 449.682 1045.77 450.012C1045.93 450.178 1045.88 450.308 1046.05 450.811C1046.14 451.077 1046.24 451.335 1046.37 451.583C1046.87 452.423 1048.28 452.731 1048.55 452.394C1048.62 452.3 1048.55 452.222 1048.64 451.907C1048.7 451.685 1048.79 451.472 1048.91 451.275C1049.2 450.794 1049.9 450.447 1050.61 449.938C1051.91 448.994 1052.28 448.189 1052.38 447.917C1052.42 447.819 1052.45 447.748 1052.46 447.693C1052.81 446.635 1052.81 445.097 1052.33 444.124C1051.53 442.524 1049.74 443.283 1048.26 441.697C1046.57 439.867 1047.58 437.365 1046.64 437.086C1045.64 436.785 1043.36 439.507 1043.36 442.161Z" fill="#26264F"/>
<path d="M1044.66 448.15C1045.02 447.667 1045.63 448.121 1045.63 448.747C1045.63 449.373 1045.03 450.025 1044.44 449.902C1043.86 449.779 1044.19 448.802 1044.66 448.15Z" fill="url(#paint100_linear)"/>
<path d="M1044.95 447.092L1044.13 448.153C1044.13 448.153 1043.25 449.451 1042.74 448.744C1042.32 448.16 1042.21 448.173 1042.18 448.199C1042.18 448.199 1042.25 447.91 1042.31 447.657C1041.99 448.112 1041.75 448.62 1041.61 449.156C1041.43 449.805 1041.24 450.525 1041.61 451.203C1041.87 451.66 1042.3 451.998 1042.81 452.144C1042.81 452.144 1043.11 452.212 1044.39 451.988C1044.39 451.988 1042.99 450.976 1042.97 450.736C1042.91 450.087 1043.82 449.73 1044.49 448.39C1044.7 447.979 1044.85 447.543 1044.95 447.092Z" fill="#26264F"/>
<path style="mix-blend-mode:multiply" opacity="0.3" d="M1047.74 520.639C1046.2 517.557 1049.99 513.465 1047.51 508.767C1045.41 504.78 1041.59 505.675 1039.83 502.019C1037.71 497.606 1042.33 494.306 1042.16 487.59C1041.96 479.563 1035.05 471.527 1030.99 472.231C1028.36 472.688 1028.02 476.611 1026.17 480.907C1028.29 485.475 1030.06 490.2 1031.45 495.04C1033.59 502.463 1034.65 506.178 1034.37 510.863C1033.97 517.391 1031.68 521.161 1033.91 524.127C1035.3 525.986 1037.96 526.284 1043.22 526.803C1047.99 527.277 1055.87 527.958 1064.63 524.013C1065.74 523.513 1066.58 523.137 1067.25 522.77C1053.54 524.827 1048.97 523.079 1047.74 520.639Z" fill="url(#paint101_linear)"/>
<path d="M1007.54 482.821L1010.1 481.714C1011.54 483.191 1013.38 484.635 1014.93 484.158C1017.24 483.463 1016.66 479.223 1019.47 471.767C1022.66 463.331 1026.27 461.148 1028.09 460.362C1029.1 459.924 1029.81 459.632 1030.65 459.84C1034.54 460.787 1035.81 470.894 1034.72 478.457C1034.11 482.717 1032.9 491.072 1026.05 495.04C1025.08 495.601 1019.72 498.703 1014.41 496.26C1009.88 494.173 1007.09 488.82 1007.54 482.821Z" fill="url(#paint102_linear)"/>
</g>
<defs>
<linearGradient id="paint0_linear" x1="468.279" y1="382.112" x2="618.425" y2="382.112" gradientUnits="userSpaceOnUse">
<stop stop-color="#FF9085"/>
<stop offset="1" stop-color="#FB6FBB"/>
</linearGradient>
<linearGradient id="paint1_linear" x1="594.935" y1="454.159" x2="734.676" y2="454.159" gradientUnits="userSpaceOnUse">
<stop stop-color="#AA80F9"/>
<stop offset="1" stop-color="#6165D7"/>
</linearGradient>
<linearGradient id="paint2_linear" x1="256833" y1="123445" x2="317020" y2="123445" gradientUnits="userSpaceOnUse">
<stop stop-color="#AA80F9"/>
<stop offset="1" stop-color="#6165D7"/>
</linearGradient>
<linearGradient id="paint3_linear" x1="293671" y1="113367" x2="252243" y2="177169" gradientUnits="userSpaceOnUse">
<stop stop-color="#AA80F9"/>
<stop offset="1" stop-color="#6165D7"/>
</linearGradient>
<linearGradient id="paint4_linear" x1="268544" y1="170254" x2="303023" y2="170254" gradientUnits="userSpaceOnUse">
<stop stop-color="#AA80F9"/>
<stop offset="1" stop-color="#6165D7"/>
</linearGradient>
<linearGradient id="paint5_linear" x1="279820" y1="103170" x2="310272" y2="103170" gradientUnits="userSpaceOnUse">
<stop stop-color="#FF9085"/>
<stop offset="1" stop-color="#FB6FBB"/>
</linearGradient>
<linearGradient id="paint6_linear" x1="396390" y1="54640.5" x2="447686" y2="54640.5" gradientUnits="userSpaceOnUse">
<stop stop-color="#FF9085"/>
<stop offset="1" stop-color="#FB6FBB"/>
</linearGradient>
<linearGradient id="paint7_linear" x1="567896" y1="103197" x2="693768" y2="103197" gradientUnits="userSpaceOnUse">
<stop stop-color="#FF9085"/>
<stop offset="1" stop-color="#FB6FBB"/>
</linearGradient>
<linearGradient id="paint8_linear" x1="279820" y1="142234" x2="310272" y2="142234" gradientUnits="userSpaceOnUse">
<stop stop-color="#FF9085"/>
<stop offset="1" stop-color="#FB6FBB"/>
</linearGradient>
<linearGradient id="paint9_linear" x1="337280" y1="57481.8" x2="263145" y2="100521" gradientUnits="userSpaceOnUse">
<stop stop-color="#AA80F9"/>
<stop offset="1" stop-color="#6165D7"/>
</linearGradient>
<linearGradient id="paint10_linear" x1="335481" y1="75800.1" x2="291806" y2="102319" gradientUnits="userSpaceOnUse">
<stop stop-color="#AA80F9"/>
<stop offset="1" stop-color="#6165D7"/>
</linearGradient>
<linearGradient id="paint11_linear" x1="616423" y1="140892" x2="740760" y2="140892" gradientUnits="userSpaceOnUse">
<stop stop-color="#AA80F9"/>
<stop offset="1" stop-color="#6165D7"/>
</linearGradient>
<linearGradient id="paint12_linear" x1="127646" y1="44125.5" x2="135344" y2="44125.5" gradientUnits="userSpaceOnUse">
<stop stop-color="#AA80F9"/>
<stop offset="1" stop-color="#6165D7"/>
</linearGradient>
<linearGradient id="paint13_linear" x1="190580" y1="62489" x2="211249" y2="62489" gradientUnits="userSpaceOnUse">
<stop stop-color="#AA80F9"/>
<stop offset="1" stop-color="#6165D7"/>
</linearGradient>
<linearGradient id="paint14_linear" x1="782.635" y1="556.821" x2="1134.5" y2="206.967" gradientUnits="userSpaceOnUse">
<stop stop-color="#EBEFF2"/>
<stop offset="1" stop-color="white"/>
</linearGradient>
<linearGradient id="paint15_linear" x1="1.03455e+06" y1="162602" x2="1.00141e+06" y2="245548" gradientUnits="userSpaceOnUse">
<stop stop-color="#FF9085"/>
<stop offset="1" stop-color="#FB6FBB"/>
</linearGradient>
<linearGradient id="paint16_linear" x1="288.978" y1="489.164" x2="878.342" y2="392.114" gradientUnits="userSpaceOnUse">
<stop offset="0.1" stop-color="#311944"/>
<stop offset="0.27" stop-color="#371B47"/>
<stop offset="0.48" stop-color="#462150"/>
<stop offset="0.72" stop-color="#612A5F"/>
<stop offset="0.97" stop-color="#853774"/>
<stop offset="1" stop-color="#893976"/>
</linearGradient>
<linearGradient id="paint17_linear" x1="14285.1" y1="12155.8" x2="43673.6" y2="4896.81" gradientUnits="userSpaceOnUse">
<stop offset="0.1" stop-color="#311944"/>
<stop offset="0.27" stop-color="#371B47"/>
<stop offset="0.48" stop-color="#462150"/>
<stop offset="0.72" stop-color="#612A5F"/>
<stop offset="0.97" stop-color="#853774"/>
<stop offset="1" stop-color="#893976"/>
</linearGradient>
<linearGradient id="paint18_linear" x1="12681.5" y1="12644.5" x2="38177.1" y2="7029.86" gradientUnits="userSpaceOnUse">
<stop offset="0.1" stop-color="#311944"/>
<stop offset="0.27" stop-color="#371B47"/>
<stop offset="0.48" stop-color="#462150"/>
<stop offset="0.72" stop-color="#612A5F"/>
<stop offset="0.97" stop-color="#853774"/>
<stop offset="1" stop-color="#893976"/>
</linearGradient>
<linearGradient id="paint19_linear" x1="13114.7" y1="11737.6" x2="37902.9" y2="4937.71" gradientUnits="userSpaceOnUse">
<stop offset="0.1" stop-color="#311944"/>
<stop offset="0.27" stop-color="#371B47"/>
<stop offset="0.48" stop-color="#462150"/>
<stop offset="0.72" stop-color="#612A5F"/>
<stop offset="0.97" stop-color="#853774"/>
<stop offset="1" stop-color="#893976"/>
</linearGradient>
<linearGradient id="paint20_linear" x1="13773.5" y1="12996.8" x2="38575.5" y2="5759.67" gradientUnits="userSpaceOnUse">
<stop offset="0.1" stop-color="#311944"/>
<stop offset="0.27" stop-color="#371B47"/>
<stop offset="0.48" stop-color="#462150"/>
<stop offset="0.72" stop-color="#612A5F"/>
<stop offset="0.97" stop-color="#853774"/>
<stop offset="1" stop-color="#893976"/>
</linearGradient>
<linearGradient id="paint21_linear" x1="15595" y1="21217.4" x2="43482.1" y2="14902.9" gradientUnits="userSpaceOnUse">
<stop offset="0.1" stop-color="#311944"/>
<stop offset="0.27" stop-color="#371B47"/>
<stop offset="0.48" stop-color="#462150"/>
<stop offset="0.72" stop-color="#612A5F"/>
<stop offset="0.97" stop-color="#853774"/>
<stop offset="1" stop-color="#893976"/>
</linearGradient>
<linearGradient id="paint22_linear" x1="13817.1" y1="18602.9" x2="37746.2" y2="12843.2" gradientUnits="userSpaceOnUse">
<stop offset="0.1" stop-color="#311944"/>
<stop offset="0.27" stop-color="#371B47"/>
<stop offset="0.48" stop-color="#462150"/>
<stop offset="0.72" stop-color="#612A5F"/>
<stop offset="0.97" stop-color="#853774"/>
<stop offset="1" stop-color="#893976"/>
</linearGradient>
<linearGradient id="paint23_linear" x1="11565.4" y1="32690.2" x2="32353.2" y2="30338.3" gradientUnits="userSpaceOnUse">
<stop offset="0.1" stop-color="#311944"/>
<stop offset="0.27" stop-color="#371B47"/>
<stop offset="0.48" stop-color="#462150"/>
<stop offset="0.72" stop-color="#612A5F"/>
<stop offset="0.97" stop-color="#853774"/>
<stop offset="1" stop-color="#893976"/>
</linearGradient>
<linearGradient id="paint24_linear" x1="13152" y1="28914.5" x2="37168.5" y2="25449.2" gradientUnits="userSpaceOnUse">
<stop offset="0.1" stop-color="#311944"/>
<stop offset="0.27" stop-color="#371B47"/>
<stop offset="0.48" stop-color="#462150"/>
<stop offset="0.72" stop-color="#612A5F"/>
<stop offset="0.97" stop-color="#853774"/>
<stop offset="1" stop-color="#893976"/>
</linearGradient>
<linearGradient id="paint25_linear" x1="12051.2" y1="12735.3" x2="36487.7" y2="7444.38" gradientUnits="userSpaceOnUse">
<stop offset="0.1" stop-color="#311944"/>
<stop offset="0.27" stop-color="#371B47"/>
<stop offset="0.48" stop-color="#462150"/>
<stop offset="0.72" stop-color="#612A5F"/>
<stop offset="0.97" stop-color="#853774"/>
<stop offset="1" stop-color="#893976"/>
</linearGradient>
<linearGradient id="paint26_linear" x1="11662.1" y1="15618.5" x2="34199.9" y2="11081.6" gradientUnits="userSpaceOnUse">
<stop offset="0.1" stop-color="#311944"/>
<stop offset="0.27" stop-color="#371B47"/>
<stop offset="0.48" stop-color="#462150"/>
<stop offset="0.72" stop-color="#612A5F"/>
<stop offset="0.97" stop-color="#853774"/>
<stop offset="1" stop-color="#893976"/>
</linearGradient>
<linearGradient id="paint27_linear" x1="12853.1" y1="14513" x2="35967.2" y2="8302.45" gradientUnits="userSpaceOnUse">
<stop offset="0.1" stop-color="#311944"/>
<stop offset="0.27" stop-color="#371B47"/>
<stop offset="0.48" stop-color="#462150"/>
<stop offset="0.72" stop-color="#612A5F"/>
<stop offset="0.97" stop-color="#853774"/>
<stop offset="1" stop-color="#893976"/>
</linearGradient>
<linearGradient id="paint28_linear" x1="763.386" y1="324.067" x2="564.144" y2="617.143" gradientUnits="userSpaceOnUse">
<stop stop-color="#FFC444"/>
<stop offset="1" stop-color="#F36F56"/>
</linearGradient>
<linearGradient id="paint29_linear" x1="999.462" y1="393.006" x2="959.37" y2="361.138" gradientUnits="userSpaceOnUse">
<stop stop-color="#444B8C"/>
<stop offset="1" stop-color="#26264F"/>
</linearGradient>
<linearGradient id="paint30_linear" x1="-45435" y1="52.1845" x2="-34715.8" y2="52.1845" gradientUnits="userSpaceOnUse">
<stop stop-color="#444B8C"/>
<stop offset="1" stop-color="#26264F"/>
</linearGradient>
<linearGradient id="paint31_linear" x1="102123" y1="98891.8" x2="110666" y2="90767.9" gradientUnits="userSpaceOnUse">
<stop stop-color="#FFC444"/>
<stop offset="1" stop-color="#F36F56"/>
</linearGradient>
<linearGradient id="paint32_linear" x1="177799" y1="46802.9" x2="180176" y2="38494.4" gradientUnits="userSpaceOnUse">
<stop stop-color="#FFC444"/>
<stop offset="1" stop-color="#F36F56"/>
</linearGradient>
<linearGradient id="paint33_linear" x1="105080" y1="59221.5" x2="95170.6" y2="-12238.9" gradientUnits="userSpaceOnUse">
<stop stop-color="#FFC444"/>
<stop offset="1" stop-color="#F36F56"/>
</linearGradient>
<linearGradient id="paint34_linear" x1="91353.2" y1="45907.4" x2="79620.1" y2="-14644.6" gradientUnits="userSpaceOnUse">
<stop stop-color="#FFC444"/>
<stop offset="1" stop-color="#F36F56"/>
</linearGradient>
<linearGradient id="paint35_linear" x1="223799" y1="61785.4" x2="226408" y2="50562.6" gradientUnits="userSpaceOnUse">
<stop stop-color="#FFC444"/>
<stop offset="1" stop-color="#F36F56"/>
</linearGradient>
<linearGradient id="paint36_linear" x1="24265.8" y1="-5925.12" x2="21987.8" y2="-9821.1" gradientUnits="userSpaceOnUse">
<stop stop-color="#FFC444"/>
<stop offset="1" stop-color="#F36F56"/>
</linearGradient>
<linearGradient id="paint37_linear" x1="56860.6" y1="20519.3" x2="45235.5" y2="11308.6" gradientUnits="userSpaceOnUse">
<stop stop-color="#EBEFF2"/>
<stop offset="1" stop-color="white"/>
</linearGradient>
<linearGradient id="paint38_linear" x1="48228.2" y1="21902.8" x2="37811.4" y2="13622.8" gradientUnits="userSpaceOnUse">
<stop stop-color="#EBEFF2"/>
<stop offset="1" stop-color="white"/>
</linearGradient>
<linearGradient id="paint39_linear" x1="48114.9" y1="9475.7" x2="46669.4" y2="17651.3" gradientUnits="userSpaceOnUse">
<stop stop-color="#EBEFF2"/>
<stop offset="1" stop-color="white"/>
</linearGradient>
<linearGradient id="paint40_linear" x1="39573.2" y1="22422.6" x2="39901.2" y2="5714.44" gradientUnits="userSpaceOnUse">
<stop stop-color="#444B8C"/>
<stop offset="1" stop-color="#26264F"/>
</linearGradient>
<linearGradient id="paint41_linear" x1="7078.38" y1="12914.9" x2="9253.56" y2="7992.97" gradientUnits="userSpaceOnUse">
<stop stop-color="#FFC444"/>
<stop offset="1" stop-color="#F36F56"/>
</linearGradient>
<linearGradient id="paint42_linear" x1="27355.4" y1="23221.3" x2="22158.7" y2="19090.6" gradientUnits="userSpaceOnUse">
<stop stop-color="#AA80F9"/>
<stop offset="1" stop-color="#6165D7"/>
</linearGradient>
<linearGradient id="paint43_linear" x1="8983.32" y1="8827.11" x2="9468.24" y2="13339.1" gradientUnits="userSpaceOnUse">
<stop stop-color="#AA80F9"/>
<stop offset="1" stop-color="#6165D7"/>
</linearGradient>
<linearGradient id="paint44_linear" x1="6626.86" y1="6925.31" x2="6907.38" y2="9530.97" gradientUnits="userSpaceOnUse">
<stop stop-color="#444B8C"/>
<stop offset="1" stop-color="#26264F"/>
</linearGradient>
<linearGradient id="paint45_linear" x1="-41965.6" y1="-4796.87" x2="-35815.2" y2="-15818" gradientUnits="userSpaceOnUse">
<stop stop-color="#444B8C"/>
<stop offset="1" stop-color="#26264F"/>
</linearGradient>
<linearGradient id="paint46_linear" x1="1049.2" y1="178.863" x2="1076.07" y2="280.898" gradientUnits="userSpaceOnUse">
<stop stop-color="#893976"/>
<stop offset="1" stop-color="#311944"/>
</linearGradient>
<linearGradient id="paint47_linear" x1="-26970.8" y1="-55600.4" x2="-28892.3" y2="-55013.3" gradientUnits="userSpaceOnUse">
<stop stop-color="#893976"/>
<stop offset="1" stop-color="#311944"/>
</linearGradient>
<linearGradient id="paint48_linear" x1="12766.2" y1="7569.76" x2="12711.6" y2="7039.28" gradientUnits="userSpaceOnUse">
<stop stop-color="#AA80F9"/>
<stop offset="1" stop-color="#6165D7"/>
</linearGradient>
<linearGradient id="paint49_linear" x1="5497.02" y1="3645.08" x2="5533.5" y2="3499.78" gradientUnits="userSpaceOnUse">
<stop stop-color="#FFC444"/>
<stop offset="1" stop-color="#F36F56"/>
</linearGradient>
<linearGradient id="paint50_linear" x1="17111.5" y1="6573.32" x2="17102.9" y2="6157.79" gradientUnits="userSpaceOnUse">
<stop stop-color="#AA80F9"/>
<stop offset="1" stop-color="#6165D7"/>
</linearGradient>
<linearGradient id="paint51_linear" x1="5668.78" y1="3687.04" x2="5705.25" y2="3541.67" gradientUnits="userSpaceOnUse">
<stop stop-color="#FFC444"/>
<stop offset="1" stop-color="#F36F56"/>
</linearGradient>
<linearGradient id="paint52_linear" x1="119468" y1="73616.7" x2="111853" y2="78620.1" gradientUnits="userSpaceOnUse">
<stop stop-color="#893976"/>
<stop offset="1" stop-color="#311944"/>
</linearGradient>
<linearGradient id="paint53_linear" x1="85029.2" y1="78363.6" x2="96327.1" y2="61400.7" gradientUnits="userSpaceOnUse">
<stop stop-color="#444B8C"/>
<stop offset="1" stop-color="#26264F"/>
</linearGradient>
<linearGradient id="paint54_linear" x1="1031.36" y1="213.985" x2="971.171" y2="278.843" gradientUnits="userSpaceOnUse">
<stop stop-color="#E38DDD"/>
<stop offset="1" stop-color="#9571F6"/>
</linearGradient>
<linearGradient id="paint55_linear" x1="48615.1" y1="8779.8" x2="48920.9" y2="7597.92" gradientUnits="userSpaceOnUse">
<stop stop-color="#893976"/>
<stop offset="1" stop-color="#311944"/>
</linearGradient>
<linearGradient id="paint56_linear" x1="995.666" y1="235.051" x2="1000.68" y2="222.31" gradientUnits="userSpaceOnUse">
<stop stop-color="#444B8C"/>
<stop offset="1" stop-color="#3E4177"/>
</linearGradient>
<linearGradient id="paint57_linear" x1="21782.6" y1="9970.59" x2="22945.6" y2="11462.3" gradientUnits="userSpaceOnUse">
<stop stop-color="#893976"/>
<stop offset="1" stop-color="#311944"/>
</linearGradient>
<linearGradient id="paint58_linear" x1="140982" y1="38615.1" x2="130420" y2="49809.9" gradientUnits="userSpaceOnUse">
<stop stop-color="#AA80F9"/>
<stop offset="1" stop-color="#6165D7"/>
</linearGradient>
<linearGradient id="paint59_linear" x1="650335" y1="105244" x2="630698" y2="155200" gradientUnits="userSpaceOnUse">
<stop stop-color="#FF9085"/>
<stop offset="1" stop-color="#FB6FBB"/>
</linearGradient>
<linearGradient id="paint60_linear" x1="231291" y1="109590" x2="215179" y2="121024" gradientUnits="userSpaceOnUse">
<stop stop-color="#FF9085"/>
<stop offset="1" stop-color="#FB6FBB"/>
</linearGradient>
<linearGradient id="paint61_linear" x1="97941.6" y1="78927.8" x2="91952.6" y2="78927.8" gradientUnits="userSpaceOnUse">
<stop stop-color="#444B8C"/>
<stop offset="1" stop-color="#26264F"/>
</linearGradient>
<linearGradient id="paint62_linear" x1="21164.5" y1="13491.2" x2="20987.4" y2="14499.8" gradientUnits="userSpaceOnUse">
<stop stop-color="#444B8C"/>
<stop offset="1" stop-color="#26264F"/>
</linearGradient>
<linearGradient id="paint63_linear" x1="81589.5" y1="63837.2" x2="76446.5" y2="63837.2" gradientUnits="userSpaceOnUse">
<stop stop-color="#444B8C"/>
<stop offset="1" stop-color="#3E4177"/>
</linearGradient>
<linearGradient id="paint64_linear" x1="12440.6" y1="11872.3" x2="12754.8" y2="10431.1" gradientUnits="userSpaceOnUse">
<stop stop-color="#FFC444"/>
<stop offset="1" stop-color="#F36F56"/>
</linearGradient>
<linearGradient id="paint65_linear" x1="98254.4" y1="123823" x2="88795.9" y2="130221" gradientUnits="userSpaceOnUse">
<stop stop-color="#444B8C"/>
<stop offset="1" stop-color="#26264F"/>
</linearGradient>
<linearGradient id="paint66_linear" x1="177061" y1="84994.5" x2="169361" y2="75889.7" gradientUnits="userSpaceOnUse">
<stop stop-color="#444B8C"/>
<stop offset="1" stop-color="#26264F"/>
</linearGradient>
<linearGradient id="paint67_linear" x1="30830.4" y1="10846.5" x2="31237.4" y2="9631.85" gradientUnits="userSpaceOnUse">
<stop stop-color="#FFC444"/>
<stop offset="1" stop-color="#F36F56"/>
</linearGradient>
<linearGradient id="paint68_linear" x1="17809.3" y1="12253.2" x2="17723.6" y2="11621.8" gradientUnits="userSpaceOnUse">
<stop stop-color="#FFC444"/>
<stop offset="1" stop-color="#F36F56"/>
</linearGradient>
<linearGradient id="paint69_linear" x1="117058" y1="83833.4" x2="124310" y2="76902.9" gradientUnits="userSpaceOnUse">
<stop stop-color="#E38DDD"/>
<stop offset="1" stop-color="#9571F6"/>
</linearGradient>
<linearGradient id="paint70_linear" x1="23773.3" y1="8034.22" x2="23131.2" y2="8849.34" gradientUnits="userSpaceOnUse">
<stop stop-color="#FFC444"/>
<stop offset="1" stop-color="#F36F56"/>
</linearGradient>
<linearGradient id="paint71_linear" x1="44938.7" y1="6439.54" x2="44930.6" y2="6784.41" gradientUnits="userSpaceOnUse">
<stop stop-color="#444B8C"/>
<stop offset="1" stop-color="#26264F"/>
</linearGradient>
<linearGradient id="paint72_linear" x1="14354" y1="8886.21" x2="14356.5" y2="8841.22" gradientUnits="userSpaceOnUse">
<stop stop-color="#893976"/>
<stop offset="1" stop-color="#311944"/>
</linearGradient>
<linearGradient id="paint73_linear" x1="33877.1" y1="15529.9" x2="33809.2" y2="16407.9" gradientUnits="userSpaceOnUse">
<stop stop-color="#444B8C"/>
<stop offset="1" stop-color="#26264F"/>
</linearGradient>
<linearGradient id="paint74_linear" x1="29950.2" y1="18254.7" x2="29955.9" y2="18158.8" gradientUnits="userSpaceOnUse">
<stop stop-color="#893976"/>
<stop offset="1" stop-color="#311944"/>
</linearGradient>
<linearGradient id="paint75_linear" x1="108110" y1="119615" x2="105459" y2="118669" gradientUnits="userSpaceOnUse">
<stop stop-color="#893976"/>
<stop offset="1" stop-color="#311944"/>
</linearGradient>
<linearGradient id="paint76_linear" x1="157079" y1="112343" x2="151164" y2="110055" gradientUnits="userSpaceOnUse">
<stop stop-color="#893976"/>
<stop offset="1" stop-color="#311944"/>
</linearGradient>
<linearGradient id="paint77_linear" x1="76813.5" y1="119505" x2="74805" y2="118989" gradientUnits="userSpaceOnUse">
<stop stop-color="#AA80F9"/>
<stop offset="1" stop-color="#6165D7"/>
</linearGradient>
<linearGradient id="paint78_linear" x1="226480" y1="79217.3" x2="247552" y2="79217.3" gradientUnits="userSpaceOnUse">
<stop stop-color="#444B8C"/>
<stop offset="1" stop-color="#26264F"/>
</linearGradient>
<linearGradient id="paint79_linear" x1="45561.2" y1="-255.501" x2="45478.5" y2="-652.215" gradientUnits="userSpaceOnUse">
<stop stop-color="#893976"/>
<stop offset="1" stop-color="#311944"/>
</linearGradient>
<linearGradient id="paint80_linear" x1="259335" y1="46824.6" x2="253555" y2="46824.6" gradientUnits="userSpaceOnUse">
<stop stop-color="#FFC444"/>
<stop offset="1" stop-color="#F36F56"/>
</linearGradient>
<linearGradient id="paint81_linear" x1="173547" y1="101620" x2="180539" y2="112343" gradientUnits="userSpaceOnUse">
<stop stop-color="#FFC444"/>
<stop offset="1" stop-color="#F36F56"/>
</linearGradient>
<linearGradient id="paint82_linear" x1="352904" y1="103957" x2="341921" y2="103957" gradientUnits="userSpaceOnUse">
<stop stop-color="#FFC444"/>
<stop offset="1" stop-color="#F36F56"/>
</linearGradient>
<linearGradient id="paint83_linear" x1="351280" y1="87405.9" x2="340394" y2="87405.9" gradientUnits="userSpaceOnUse">
<stop stop-color="#FFC444"/>
<stop offset="1" stop-color="#F36F56"/>
</linearGradient>
<linearGradient id="paint84_linear" x1="31592.9" y1="12891" x2="31664.3" y2="12311.3" gradientUnits="userSpaceOnUse">
<stop stop-color="#893976"/>
<stop offset="1" stop-color="#311944"/>
</linearGradient>
<linearGradient id="paint85_linear" x1="24442.5" y1="-193.923" x2="24247.9" y2="-619.376" gradientUnits="userSpaceOnUse">
<stop stop-color="#893976"/>
<stop offset="1" stop-color="#311944"/>
</linearGradient>
<linearGradient id="paint86_linear" x1="19108.2" y1="-272.893" x2="18852.9" y2="-677.073" gradientUnits="userSpaceOnUse">
<stop stop-color="#893976"/>
<stop offset="1" stop-color="#311944"/>
</linearGradient>
<linearGradient id="paint87_linear" x1="99399" y1="45733.6" x2="92442.2" y2="37192.1" gradientUnits="userSpaceOnUse">
<stop stop-color="#FFC444"/>
<stop offset="1" stop-color="#F36F56"/>
</linearGradient>
<linearGradient id="paint88_linear" x1="24153" y1="3627.99" x2="24194" y2="3670.49" gradientUnits="userSpaceOnUse">
<stop stop-color="#444B8C"/>
<stop offset="1" stop-color="#26264F"/>
</linearGradient>
<linearGradient id="paint89_linear" x1="12883.6" y1="12344" x2="12889.9" y2="12217.5" gradientUnits="userSpaceOnUse">
<stop stop-color="#FFC444"/>
<stop offset="1" stop-color="#F36F56"/>
</linearGradient>
<linearGradient id="paint90_linear" x1="19139.5" y1="3105.61" x2="19172.9" y2="3139.31" gradientUnits="userSpaceOnUse">
<stop stop-color="#444B8C"/>
<stop offset="1" stop-color="#26264F"/>
</linearGradient>
<linearGradient id="paint91_linear" x1="23254.4" y1="6008.7" x2="23294.2" y2="6056.27" gradientUnits="userSpaceOnUse">
<stop stop-color="#444B8C"/>
<stop offset="1" stop-color="#26264F"/>
</linearGradient>
<linearGradient id="paint92_linear" x1="15762.4" y1="11743.7" x2="15787.7" y2="11614.6" gradientUnits="userSpaceOnUse">
<stop stop-color="#FFC444"/>
<stop offset="1" stop-color="#F36F56"/>
</linearGradient>
<linearGradient id="paint93_linear" x1="18766.7" y1="4549.69" x2="18795.2" y2="4587.21" gradientUnits="userSpaceOnUse">
<stop stop-color="#444B8C"/>
<stop offset="1" stop-color="#26264F"/>
</linearGradient>
<linearGradient id="paint94_linear" x1="1048.91" y1="548.113" x2="1067" y2="548.113" gradientUnits="userSpaceOnUse">
<stop stop-color="#311944"/>
<stop offset="1" stop-color="#893976"/>
</linearGradient>
<linearGradient id="paint95_linear" x1="90073.2" y1="125725" x2="89971.6" y2="138719" gradientUnits="userSpaceOnUse">
<stop stop-color="#311944"/>
<stop offset="1" stop-color="#893976"/>
</linearGradient>
<linearGradient id="paint96_linear" x1="91028" y1="43074.8" x2="90253.7" y2="41564.4" gradientUnits="userSpaceOnUse">
<stop stop-color="#FF9085"/>
<stop offset="1" stop-color="#FB6FBB"/>
</linearGradient>
<linearGradient id="paint97_linear" x1="13080.7" y1="14875.8" x2="12916.1" y2="15172.6" gradientUnits="userSpaceOnUse">
<stop stop-color="#FFC444"/>
<stop offset="1" stop-color="#F36F56"/>
</linearGradient>
<linearGradient id="paint98_linear" x1="161686" y1="107817" x2="168122" y2="112040" gradientUnits="userSpaceOnUse">
<stop stop-color="#E38DDD"/>
<stop offset="1" stop-color="#9571F6"/>
</linearGradient>
<linearGradient id="paint99_linear" x1="100558" y1="38041.6" x2="101139" y2="39450.8" gradientUnits="userSpaceOnUse">
<stop stop-color="#FFC444"/>
<stop offset="1" stop-color="#F36F56"/>
</linearGradient>
<linearGradient id="paint100_linear" x1="9116.86" y1="4187.17" x2="9213.34" y2="4346.45" gradientUnits="userSpaceOnUse">
<stop stop-color="#FFC444"/>
<stop offset="1" stop-color="#F36F56"/>
</linearGradient>
<linearGradient id="paint101_linear" x1="130317" y1="82845.2" x2="135282" y2="86388" gradientUnits="userSpaceOnUse">
<stop stop-color="#E38DDD"/>
<stop offset="1" stop-color="#9571F6"/>
</linearGradient>
<linearGradient id="paint102_linear" x1="88259.7" y1="55953.1" x2="91624" y2="58322.7" gradientUnits="userSpaceOnUse">
<stop stop-color="#E38DDD"/>
<stop offset="1" stop-color="#9571F6"/>
</linearGradient>
<clipPath id="clip0">
<rect width="1152" height="700" fill="white"/>
</clipPath>
</defs>
</svg>
