<svg width="32" height="32" viewBox="0 0 32 32" fill="none" xmlns="http://www.w3.org/2000/svg">
<g clip-path="url(#clip0)">
<path d="M17.1356 29.3751C17.1356 30.4796 16.2401 31.3751 15.1356 31.3751C14.0311 31.3751 13.1356 30.4796 13.1356 29.3751C13.1356 28.2706 14.0311 27.3751 15.1356 27.3751C16.2401 27.3751 17.1356 28.2706 17.1356 29.3751Z" fill="#FF9085"/>
<path d="M29.5857 7.81403C29.5857 8.91852 28.6902 9.81378 27.5857 9.81378C26.4812 9.81378 25.5857 8.91852 25.5857 7.81403C25.5857 6.70929 26.4812 5.81403 27.5857 5.81403C28.6902 5.81403 29.5857 6.70929 29.5857 7.81403Z" fill="#FFBD3F"/>
<path d="M4.68738 7.81396C4.68738 8.91846 3.79187 9.81372 2.68738 9.81372C1.58289 9.81372 0.687378 8.91846 0.687378 7.81396C0.687378 6.70923 1.58289 5.81396 2.68738 5.81396C3.79187 5.81396 4.68738 6.70923 4.68738 7.81396Z" fill="#FB6FBB"/>
<path d="M15.1364 5.47388L6.8866 10.2368V19.7629L15.1364 24.5261L23.3864 19.7629V10.2368L15.1364 5.47388Z" fill="#AA80F9"/>
<path d="M23.3864 19.7629V10.2368L15.1364 15V24.5261L23.3864 19.7629Z" fill="#9268E1"/>
<path d="M6.8866 19.7629V10.2368L15.1364 15V24.5261L6.8866 19.7629Z" fill="#B393EF"/>
<path d="M30.2107 7.81399C30.2107 6.36647 29.0332 5.18898 27.5857 5.18898C26.8425 5.18898 26.1709 5.50002 25.6928 5.99806L15.4489 0.0837405C15.2555 -0.0278321 15.0175 -0.0278321 14.8241 0.0837405L4.57997 5.99806C4.10194 5.50002 3.43055 5.18898 2.68739 5.18898C1.23987 5.18898 0.0623779 6.36647 0.0623779 7.81399C0.0623779 9.04593 0.915652 10.0818 2.06238 10.3631V22.1876C2.06238 22.4107 2.18152 22.617 2.37488 22.7288L12.6156 28.6414C12.5478 28.8744 12.5107 29.1204 12.5107 29.3751C12.5107 30.8224 13.6882 32.0001 15.1357 32.0001C16.5829 32.0001 17.7604 30.8224 17.7604 29.3751C17.7604 29.1207 17.7236 28.8751 17.6557 28.6422L27.8982 22.7288C28.0915 22.6173 28.2107 22.4107 28.2107 22.1876V10.3631C29.3574 10.0818 30.2107 9.04593 30.2107 7.81399ZM1.31238 7.81399C1.31238 7.05569 1.92908 6.43898 2.68739 6.43898C3.44544 6.43898 4.06215 7.05569 4.06215 7.81399C4.06215 8.57205 3.44544 9.18899 2.68739 9.18899C1.92908 9.18899 1.31238 8.57205 1.31238 7.81399ZM15.1357 30.7501C14.3774 30.7501 13.7607 30.1334 13.7607 29.3751C13.7607 28.617 14.3774 28.0001 15.1357 28.0001C15.8937 28.0001 16.5107 28.617 16.5107 29.3751C16.5107 30.1334 15.8937 30.7501 15.1357 30.7501ZM17.0297 27.5604C16.5514 27.0616 15.8796 26.7501 15.1357 26.7501C14.3923 26.7501 13.7204 27.0614 13.2423 27.5597L3.31239 21.8267V10.3631C4.45888 10.0818 5.31215 9.04593 5.31215 7.81399C5.31215 7.5591 5.27504 7.31277 5.20692 7.07937L15.1364 1.34668L25.0661 7.07937C24.998 7.31277 24.9609 7.55886 24.9609 7.81399C24.9609 9.04593 25.8142 10.0818 26.9607 10.3631V21.8267L17.0297 27.5604ZM27.5857 9.18899C26.8276 9.18899 26.2106 8.57205 26.2106 7.81399C26.2106 7.05569 26.8276 6.43898 27.5857 6.43898C28.344 6.43898 28.9607 7.05569 28.9607 7.81399C28.9607 8.57205 28.344 9.18899 27.5857 9.18899Z" fill="black"/>
<path d="M23.6989 9.69556L15.4489 4.93262C15.2555 4.82104 15.0175 4.82104 14.8241 4.93262L6.5741 9.69556C6.38074 9.80737 6.2616 10.0137 6.2616 10.2368V19.7629C6.2616 19.9861 6.38074 20.1926 6.5741 20.3042L14.8241 25.0674C14.9208 25.123 15.0284 25.1511 15.1364 25.1511C15.2445 25.1511 15.3522 25.123 15.4489 25.0674L23.6989 20.3042C23.8922 20.1926 24.0114 19.9861 24.0114 19.7629V10.2368C24.0114 10.0137 23.8922 9.80737 23.6989 9.69556ZM15.1364 6.19556L22.1364 10.2368L15.1364 14.2783L8.1366 10.2368L15.1364 6.19556ZM15.7614 23.4436V20.625C15.7614 20.2798 15.4816 20 15.1364 20C14.7914 20 14.5116 20.2798 14.5116 20.625V23.4436L7.5116 19.4021V11.3193L14.8241 15.5413C14.9208 15.5969 15.0284 15.625 15.1364 15.625C15.2445 15.625 15.3522 15.5969 15.4489 15.5413L22.7614 11.3193V19.4021L15.7614 23.4436Z" fill="black"/>
<path d="M15.1359 17.1875C14.9708 17.1875 14.8102 17.2542 14.6932 17.3706C14.577 17.4868 14.5101 17.6479 14.5101 17.8125C14.5101 17.9768 14.577 18.1379 14.6932 18.2542C14.8102 18.3706 14.9708 18.4375 15.1359 18.4375C15.3002 18.4375 15.4615 18.3706 15.5778 18.2542C15.694 18.1379 15.7609 17.9768 15.7609 17.8125C15.7609 17.6479 15.694 17.4868 15.5778 17.3706C15.4615 17.2542 15.3002 17.1875 15.1359 17.1875Z" fill="black"/>
</g>
<defs>
<clipPath id="clip0">
<rect width="32" height="32" fill="white"/>
</clipPath>
</defs>
</svg>
